<svg width="91" height="21" viewBox="0 0 91 21" fill="none" xmlns="http://www.w3.org/2000/svg">
<mask id="path-1-outside-1_6_2" maskUnits="userSpaceOnUse" x="-0.726562" y="-0.150391" width="91" height="21" fill="black">
<rect fill="white" x="-0.726562" y="-0.150391" width="91" height="21"/>
<path d="M5.20312 14.5293C5.67839 14.7181 6.05273 14.8646 6.32617 14.9688C6.59961 15.0729 6.88607 15.1641 7.18555 15.2422C7.27018 15.0273 7.3125 14.7344 7.3125 14.3633C7.3125 13.862 7.27669 12.944 7.20508 11.6094C7.10091 9.82552 7.04883 8.45833 7.04883 7.50781C7.04883 6.85026 7.06836 6.28385 7.10742 5.80859L5.49609 5.71094L5.4668 8.78711C4.97852 8.94987 4.42839 9.03125 3.81641 9.03125C3.66016 9.03125 3.54297 9.02799 3.46484 9.02148C3.25 8.85221 3.02539 8.58529 2.79102 8.2207C2.56315 7.85612 2.37435 7.44596 2.22461 6.99023C2.07487 6.53451 2 6.09505 2 5.67188C2 4.94271 2.12044 4.38607 2.36133 4.00195C2.60221 3.61784 2.94076 3.35417 3.37695 3.21094C3.81315 3.0612 4.39583 2.96354 5.125 2.91797C6.25781 2.85286 7.58919 2.80404 9.11914 2.77148C10.6556 2.73242 12.1237 2.71289 13.5234 2.71289C13.7122 2.95378 13.8522 3.22396 13.9434 3.52344C14.041 3.82292 14.0898 4.1224 14.0898 4.42188C14.0898 4.98177 13.9466 5.45052 13.6602 5.82812C13.3737 6.20573 12.9505 6.39453 12.3906 6.39453C12.026 6.39453 11.5866 6.32943 11.0723 6.19922C10.9551 9.25911 10.7858 12.0846 10.5645 14.6758C10.5189 15.1771 10.444 15.6198 10.3398 16.0039C10.2357 16.388 10.0762 16.7233 9.86133 17.0098C9.5944 17.3613 9.22656 17.6217 8.75781 17.791C8.28906 17.9603 7.77148 18.0449 7.20508 18.0449C6.67122 18.0449 6.14388 17.9505 5.62305 17.7617C5.10872 17.5729 4.72135 17.2246 4.46094 16.7168C4.46745 16.2936 4.51953 15.9193 4.61719 15.5938C4.71484 15.2617 4.91016 14.9069 5.20312 14.5293ZM18.1391 11.502C18.1391 8.48112 18.1977 6.4043 18.3148 5.27148L17.2113 5.07617C17.0551 4.47721 16.977 3.83268 16.977 3.14258C17.0746 3.01888 17.2569 2.86589 17.5238 2.68359C17.7908 2.5013 18.1 2.3418 18.4516 2.20508C18.8096 2.06836 19.1645 2 19.516 2C20.3168 2 20.9125 2.20508 21.3031 2.61523C21.6938 3.02539 21.8891 3.65365 21.8891 4.5C21.8891 4.87109 21.8565 5.47005 21.7914 6.29688C21.7263 7.11719 21.6319 7.99935 21.5082 8.94336C21.3845 9.88086 21.2413 10.7174 21.0785 11.4531C21.0785 11.4922 21.1013 11.528 21.1469 11.5605C21.1924 11.5931 21.2413 11.6094 21.2934 11.6094C21.352 11.6094 21.391 11.5866 21.4105 11.541C21.671 10.5059 21.9314 9.63997 22.1918 8.94336C22.4522 8.24674 22.8461 7.62826 23.3734 7.08789C23.9008 6.54753 24.5844 6.27734 25.4242 6.27734C26.4659 6.27734 27.2146 6.59635 27.6703 7.23438C28.126 7.86589 28.3539 8.66341 28.3539 9.62695C28.3539 10.4863 28.253 11.3164 28.0512 12.1172C27.8493 12.9115 27.5987 13.7415 27.2992 14.6074C27.3122 14.5749 27.2667 14.7018 27.1625 14.9883L27.182 15.0078L28.6273 14.4023C29.1352 14.8385 29.4314 15.418 29.516 16.1406C29.516 16.1862 29.3695 16.375 29.0766 16.707C28.7836 17.0326 28.3962 17.3385 27.9145 17.625C27.4392 17.9049 26.8923 18.0449 26.2738 18.0449C25.6553 18.0449 25.1508 17.8789 24.7602 17.5469C24.3695 17.2148 24.1742 16.6484 24.1742 15.8477C24.1742 15.2096 24.2003 14.3568 24.2523 13.2891C24.3044 12.2214 24.3565 11.362 24.4086 10.7109C24.2393 10.5286 24.031 10.431 23.7836 10.418C23.5557 10.7109 23.2204 11.2969 22.7777 12.1758C22.335 13.0547 22.0225 13.7122 21.8402 14.1484C21.8272 14.2396 21.8207 14.3275 21.8207 14.4121C21.8207 14.7376 21.8695 15.1771 21.9672 15.7305C22.0648 16.2773 22.1853 16.7884 22.3285 17.2637C22.2113 17.485 21.9704 17.6706 21.6059 17.8203C21.2413 17.9701 20.7921 18.0449 20.2582 18.0449C19.7764 18.0449 19.3891 18.0059 19.0961 17.9277C18.8096 17.8496 18.6078 17.7682 18.4906 17.6836C18.3734 17.5924 18.3148 17.5371 18.3148 17.5176C18.3083 17.459 18.2921 17.306 18.266 17.0586C18.24 16.8047 18.2139 16.4531 18.1879 16.0039C18.1618 15.5482 18.1488 15.0306 18.1488 14.4512L18.1391 11.502ZM32.2387 12.1758C32.2387 11.0495 32.4275 10.0436 32.8051 9.1582C33.1827 8.27279 33.7654 7.57292 34.5531 7.05859C35.3474 6.53776 36.337 6.27734 37.5219 6.27734C38.1404 6.27734 38.7589 6.35221 39.3773 6.50195C39.9958 6.64518 40.5199 6.88607 40.9496 7.22461C41.3467 7.54362 41.6332 7.9668 41.809 8.49414C41.9913 9.01497 42.0824 9.5944 42.0824 10.2324C42.0824 10.6556 42.0466 11.0885 41.975 11.5312C41.8969 11.6615 41.7439 11.834 41.516 12.0488C41.2882 12.2572 41.0212 12.4622 40.7152 12.6641C40.4092 12.8659 40.113 13.0221 39.8266 13.1328C39.5531 13.1523 39.2699 13.1621 38.977 13.1621C38.4626 13.1621 37.9418 13.1393 37.4145 13.0938C36.8871 13.0482 36.4249 12.9961 36.0277 12.9375C36.0798 13.4909 36.2491 13.9727 36.5355 14.3828C36.822 14.793 37.2777 14.998 37.9027 14.998C37.9613 14.998 38.0557 14.9915 38.1859 14.9785C38.5831 14.9395 39.0453 14.8353 39.5727 14.666C40.1065 14.4902 40.6371 14.2884 41.1645 14.0605C41.4118 14.3079 41.5941 14.5553 41.7113 14.8027C41.8285 15.0501 41.9099 15.4049 41.9555 15.8672C41.7536 16.1016 41.4249 16.388 40.9691 16.7266C40.5199 17.0651 39.9698 17.3711 39.3188 17.6445C38.6677 17.9115 37.9874 18.0449 37.2777 18.0449C36.21 18.0449 35.2953 17.7878 34.5336 17.2734C33.7784 16.7526 33.2055 16.0495 32.8148 15.1641C32.4307 14.2721 32.2387 13.276 32.2387 12.1758ZM38.5277 9.92969C38.4366 9.83203 38.2836 9.75716 38.0688 9.70508C37.8539 9.64648 37.6293 9.61719 37.3949 9.61719C37.2061 9.61719 37.0141 9.63346 36.8188 9.66602C36.6299 9.69857 36.516 9.73438 36.477 9.77344C36.2556 10.2096 36.1156 10.7044 36.057 11.2578L38.6645 11.0039L38.5277 9.92969ZM45.3129 14.7148C45.71 14.8451 46.0714 14.9492 46.3969 15.0273C47.0284 12.4883 47.7478 9.49023 48.5551 6.0332L46.2016 5.7793C46.0518 5.36914 45.977 4.90365 45.977 4.38281C45.977 3.98568 46.0225 3.59831 46.1137 3.2207C47.0577 3.03841 48.1449 2.9082 49.3754 2.83008C50.6124 2.74544 51.6736 2.70312 52.559 2.70312C53.197 2.70312 53.6755 2.70638 53.9945 2.71289L54.6098 3.06445C55.7035 6.06576 56.8135 10.125 57.9398 15.2422C57.9529 15.2943 57.9756 15.3984 58.0082 15.5547C58.0473 15.7109 58.0766 15.8607 58.0961 16.0039C58.1156 16.1406 58.1254 16.2708 58.1254 16.3945C58.1254 16.9414 57.9301 17.3841 57.5395 17.7227C56.9926 17.9375 56.3318 18.0449 55.557 18.0449C55.1924 18.0449 54.8246 18.0059 54.4535 17.9277C54.0824 17.8496 53.8318 17.7292 53.7016 17.5664L53.8187 15.0469L53.5746 13.7383C53.1514 13.7643 52.6534 13.7773 52.0805 13.7773C51.4685 13.7773 50.8956 13.7578 50.3617 13.7188L50.2445 14.2461C49.9906 15.3789 49.7823 16.1829 49.6195 16.6582C49.4633 17.1335 49.2289 17.485 48.9164 17.7129C48.6104 17.9408 48.1514 18.0547 47.5395 18.0547C47.1423 18.0547 46.7419 18.0026 46.3383 17.8984C45.9346 17.8008 45.5701 17.6673 45.2445 17.498C44.919 17.3288 44.6749 17.1465 44.5121 16.9512C44.5121 16.4824 44.5837 16.0365 44.727 15.6133C44.8702 15.1901 45.0655 14.8906 45.3129 14.7148ZM52.1586 6.12109H51.7094L51.0062 10.9355H53.1937L52.1586 6.12109ZM62.0395 14.4512C62.0395 13.39 62.0525 12.5892 62.0785 12.0488C62.1046 11.502 62.1729 10.7012 62.2836 9.64648L61.1508 9.5C61.0141 9.07682 60.9229 8.69922 60.8773 8.36719C60.8383 8.03516 60.8187 7.60547 60.8187 7.07812C60.9229 6.98698 61.0954 6.87956 61.3363 6.75586C61.5837 6.62565 61.8767 6.51497 62.2152 6.42383C62.5538 6.32617 62.8956 6.27734 63.2406 6.27734C64.0284 6.27734 64.585 6.44661 64.9105 6.78516C65.2426 7.1237 65.4086 7.63151 65.4086 8.30859C65.4086 8.6862 65.3533 9.19727 65.2426 9.8418C65.0603 10.877 64.9691 11.4206 64.9691 11.4727C64.9691 11.5052 64.9919 11.5378 65.0375 11.5703C65.0831 11.5964 65.1319 11.6094 65.184 11.6094C65.2426 11.6094 65.2816 11.5866 65.3012 11.541C65.5616 10.5059 65.822 9.63997 66.0824 8.94336C66.3428 8.24674 66.7367 7.62826 67.2641 7.08789C67.7914 6.54753 68.475 6.27734 69.3148 6.27734C70.3565 6.27734 71.1052 6.59635 71.5609 7.23438C72.0167 7.86589 72.2445 8.66341 72.2445 9.62695C72.2445 10.4863 72.1436 11.3164 71.9418 12.1172C71.74 12.9115 71.4893 13.7415 71.1898 14.6074C71.2029 14.5749 71.1573 14.7018 71.0531 14.9883L71.0727 15.0078L72.4984 14.4219C73.0062 14.8581 73.3025 15.4375 73.3871 16.1602C73.3871 16.2057 73.2406 16.3913 72.9477 16.7168C72.6612 17.0423 72.2803 17.3451 71.8051 17.625C71.3298 17.9049 70.7829 18.0449 70.1645 18.0449C69.546 18.0449 69.0414 17.8789 68.6508 17.5469C68.2602 17.2148 68.0648 16.6484 68.0648 15.8477C68.0648 15.2096 68.0909 14.3568 68.143 13.2891C68.1951 12.2214 68.2471 11.362 68.2992 10.7109C68.1299 10.5286 67.9216 10.431 67.6742 10.418C67.4464 10.7109 67.1111 11.2969 66.6684 12.1758C66.2256 13.0547 65.9131 13.7122 65.7309 14.1484C65.7178 14.2396 65.7113 14.3275 65.7113 14.4121C65.7113 14.7376 65.7602 15.1771 65.8578 15.7305C65.9555 16.2773 66.0759 16.7884 66.2191 17.2637C66.102 17.485 65.8611 17.6706 65.4965 17.8203C65.1319 17.9701 64.6827 18.0449 64.1488 18.0449C63.6671 18.0449 63.2797 18.0059 62.9867 17.9277C62.7003 17.8496 62.4984 17.7682 62.3812 17.6836C62.2641 17.5924 62.2055 17.5371 62.2055 17.5176C62.199 17.459 62.1827 17.306 62.1566 17.0586C62.1306 16.8047 62.1046 16.4531 62.0785 16.0039C62.0525 15.5482 62.0395 15.0306 62.0395 14.4512ZM76.725 11.502C76.725 8.48112 76.7836 6.4043 76.9008 5.27148L75.7973 5.07617C75.641 4.47721 75.5629 3.83268 75.5629 3.14258C75.6605 3.01888 75.8428 2.86589 76.1098 2.68359C76.3767 2.5013 76.6859 2.3418 77.0375 2.20508C77.3956 2.06836 77.7504 2 78.102 2C78.9027 2 79.4984 2.20508 79.8891 2.61523C80.2797 3.02539 80.475 3.65365 80.475 4.5C80.475 4.87109 80.4424 5.47005 80.3773 6.29688C80.3122 7.11719 80.2178 7.99935 80.0941 8.94336C79.9704 9.88086 79.8272 10.7174 79.6645 11.4531C79.6645 11.4922 79.6872 11.528 79.7328 11.5605C79.7784 11.5931 79.8272 11.6094 79.8793 11.6094C79.9379 11.6094 79.977 11.5866 79.9965 11.541C80.2569 10.5059 80.5173 9.63997 80.7777 8.94336C81.0381 8.24674 81.432 7.62826 81.9594 7.08789C82.4867 6.54753 83.1703 6.27734 84.0102 6.27734C85.0518 6.27734 85.8005 6.59635 86.2562 7.23438C86.712 7.86589 86.9398 8.66341 86.9398 9.62695C86.9398 10.4863 86.8389 11.3164 86.6371 12.1172C86.4353 12.9115 86.1846 13.7415 85.8852 14.6074C85.8982 14.5749 85.8526 14.7018 85.7484 14.9883L85.768 15.0078L87.2133 14.4023C87.7211 14.8385 88.0173 15.418 88.102 16.1406C88.102 16.1862 87.9555 16.375 87.6625 16.707C87.3695 17.0326 86.9822 17.3385 86.5004 17.625C86.0251 17.9049 85.4783 18.0449 84.8598 18.0449C84.2413 18.0449 83.7367 17.8789 83.3461 17.5469C82.9555 17.2148 82.7602 16.6484 82.7602 15.8477C82.7602 15.2096 82.7862 14.3568 82.8383 13.2891C82.8904 12.2214 82.9424 11.362 82.9945 10.7109C82.8253 10.5286 82.6169 10.431 82.3695 10.418C82.1417 10.7109 81.8064 11.2969 81.3637 12.1758C80.921 13.0547 80.6085 13.7122 80.4262 14.1484C80.4131 14.2396 80.4066 14.3275 80.4066 14.4121C80.4066 14.7376 80.4555 15.1771 80.5531 15.7305C80.6508 16.2773 80.7712 16.7884 80.9145 17.2637C80.7973 17.485 80.5564 17.6706 80.1918 17.8203C79.8272 17.9701 79.378 18.0449 78.8441 18.0449C78.3624 18.0449 77.975 18.0059 77.682 17.9277C77.3956 17.8496 77.1937 17.7682 77.0766 17.6836C76.9594 17.5924 76.9008 17.5371 76.9008 17.5176C76.8943 17.459 76.878 17.306 76.852 17.0586C76.8259 16.8047 76.7999 16.4531 76.7738 16.0039C76.7478 15.5482 76.7348 15.0306 76.7348 14.4512L76.725 11.502Z"/>
</mask>
<path d="M5.20312 14.5293C5.67839 14.7181 6.05273 14.8646 6.32617 14.9688C6.59961 15.0729 6.88607 15.1641 7.18555 15.2422C7.27018 15.0273 7.3125 14.7344 7.3125 14.3633C7.3125 13.862 7.27669 12.944 7.20508 11.6094C7.10091 9.82552 7.04883 8.45833 7.04883 7.50781C7.04883 6.85026 7.06836 6.28385 7.10742 5.80859L5.49609 5.71094L5.4668 8.78711C4.97852 8.94987 4.42839 9.03125 3.81641 9.03125C3.66016 9.03125 3.54297 9.02799 3.46484 9.02148C3.25 8.85221 3.02539 8.58529 2.79102 8.2207C2.56315 7.85612 2.37435 7.44596 2.22461 6.99023C2.07487 6.53451 2 6.09505 2 5.67188C2 4.94271 2.12044 4.38607 2.36133 4.00195C2.60221 3.61784 2.94076 3.35417 3.37695 3.21094C3.81315 3.0612 4.39583 2.96354 5.125 2.91797C6.25781 2.85286 7.58919 2.80404 9.11914 2.77148C10.6556 2.73242 12.1237 2.71289 13.5234 2.71289C13.7122 2.95378 13.8522 3.22396 13.9434 3.52344C14.041 3.82292 14.0898 4.1224 14.0898 4.42188C14.0898 4.98177 13.9466 5.45052 13.6602 5.82812C13.3737 6.20573 12.9505 6.39453 12.3906 6.39453C12.026 6.39453 11.5866 6.32943 11.0723 6.19922C10.9551 9.25911 10.7858 12.0846 10.5645 14.6758C10.5189 15.1771 10.444 15.6198 10.3398 16.0039C10.2357 16.388 10.0762 16.7233 9.86133 17.0098C9.5944 17.3613 9.22656 17.6217 8.75781 17.791C8.28906 17.9603 7.77148 18.0449 7.20508 18.0449C6.67122 18.0449 6.14388 17.9505 5.62305 17.7617C5.10872 17.5729 4.72135 17.2246 4.46094 16.7168C4.46745 16.2936 4.51953 15.9193 4.61719 15.5938C4.71484 15.2617 4.91016 14.9069 5.20312 14.5293ZM18.1391 11.502C18.1391 8.48112 18.1977 6.4043 18.3148 5.27148L17.2113 5.07617C17.0551 4.47721 16.977 3.83268 16.977 3.14258C17.0746 3.01888 17.2569 2.86589 17.5238 2.68359C17.7908 2.5013 18.1 2.3418 18.4516 2.20508C18.8096 2.06836 19.1645 2 19.516 2C20.3168 2 20.9125 2.20508 21.3031 2.61523C21.6938 3.02539 21.8891 3.65365 21.8891 4.5C21.8891 4.87109 21.8565 5.47005 21.7914 6.29688C21.7263 7.11719 21.6319 7.99935 21.5082 8.94336C21.3845 9.88086 21.2413 10.7174 21.0785 11.4531C21.0785 11.4922 21.1013 11.528 21.1469 11.5605C21.1924 11.5931 21.2413 11.6094 21.2934 11.6094C21.352 11.6094 21.391 11.5866 21.4105 11.541C21.671 10.5059 21.9314 9.63997 22.1918 8.94336C22.4522 8.24674 22.8461 7.62826 23.3734 7.08789C23.9008 6.54753 24.5844 6.27734 25.4242 6.27734C26.4659 6.27734 27.2146 6.59635 27.6703 7.23438C28.126 7.86589 28.3539 8.66341 28.3539 9.62695C28.3539 10.4863 28.253 11.3164 28.0512 12.1172C27.8493 12.9115 27.5987 13.7415 27.2992 14.6074C27.3122 14.5749 27.2667 14.7018 27.1625 14.9883L27.182 15.0078L28.6273 14.4023C29.1352 14.8385 29.4314 15.418 29.516 16.1406C29.516 16.1862 29.3695 16.375 29.0766 16.707C28.7836 17.0326 28.3962 17.3385 27.9145 17.625C27.4392 17.9049 26.8923 18.0449 26.2738 18.0449C25.6553 18.0449 25.1508 17.8789 24.7602 17.5469C24.3695 17.2148 24.1742 16.6484 24.1742 15.8477C24.1742 15.2096 24.2003 14.3568 24.2523 13.2891C24.3044 12.2214 24.3565 11.362 24.4086 10.7109C24.2393 10.5286 24.031 10.431 23.7836 10.418C23.5557 10.7109 23.2204 11.2969 22.7777 12.1758C22.335 13.0547 22.0225 13.7122 21.8402 14.1484C21.8272 14.2396 21.8207 14.3275 21.8207 14.4121C21.8207 14.7376 21.8695 15.1771 21.9672 15.7305C22.0648 16.2773 22.1853 16.7884 22.3285 17.2637C22.2113 17.485 21.9704 17.6706 21.6059 17.8203C21.2413 17.9701 20.7921 18.0449 20.2582 18.0449C19.7764 18.0449 19.3891 18.0059 19.0961 17.9277C18.8096 17.8496 18.6078 17.7682 18.4906 17.6836C18.3734 17.5924 18.3148 17.5371 18.3148 17.5176C18.3083 17.459 18.2921 17.306 18.266 17.0586C18.24 16.8047 18.2139 16.4531 18.1879 16.0039C18.1618 15.5482 18.1488 15.0306 18.1488 14.4512L18.1391 11.502ZM32.2387 12.1758C32.2387 11.0495 32.4275 10.0436 32.8051 9.1582C33.1827 8.27279 33.7654 7.57292 34.5531 7.05859C35.3474 6.53776 36.337 6.27734 37.5219 6.27734C38.1404 6.27734 38.7589 6.35221 39.3773 6.50195C39.9958 6.64518 40.5199 6.88607 40.9496 7.22461C41.3467 7.54362 41.6332 7.9668 41.809 8.49414C41.9913 9.01497 42.0824 9.5944 42.0824 10.2324C42.0824 10.6556 42.0466 11.0885 41.975 11.5312C41.8969 11.6615 41.7439 11.834 41.516 12.0488C41.2882 12.2572 41.0212 12.4622 40.7152 12.6641C40.4092 12.8659 40.113 13.0221 39.8266 13.1328C39.5531 13.1523 39.2699 13.1621 38.977 13.1621C38.4626 13.1621 37.9418 13.1393 37.4145 13.0938C36.8871 13.0482 36.4249 12.9961 36.0277 12.9375C36.0798 13.4909 36.2491 13.9727 36.5355 14.3828C36.822 14.793 37.2777 14.998 37.9027 14.998C37.9613 14.998 38.0557 14.9915 38.1859 14.9785C38.5831 14.9395 39.0453 14.8353 39.5727 14.666C40.1065 14.4902 40.6371 14.2884 41.1645 14.0605C41.4118 14.3079 41.5941 14.5553 41.7113 14.8027C41.8285 15.0501 41.9099 15.4049 41.9555 15.8672C41.7536 16.1016 41.4249 16.388 40.9691 16.7266C40.5199 17.0651 39.9698 17.3711 39.3188 17.6445C38.6677 17.9115 37.9874 18.0449 37.2777 18.0449C36.21 18.0449 35.2953 17.7878 34.5336 17.2734C33.7784 16.7526 33.2055 16.0495 32.8148 15.1641C32.4307 14.2721 32.2387 13.276 32.2387 12.1758ZM38.5277 9.92969C38.4366 9.83203 38.2836 9.75716 38.0688 9.70508C37.8539 9.64648 37.6293 9.61719 37.3949 9.61719C37.2061 9.61719 37.0141 9.63346 36.8188 9.66602C36.6299 9.69857 36.516 9.73438 36.477 9.77344C36.2556 10.2096 36.1156 10.7044 36.057 11.2578L38.6645 11.0039L38.5277 9.92969ZM45.3129 14.7148C45.71 14.8451 46.0714 14.9492 46.3969 15.0273C47.0284 12.4883 47.7478 9.49023 48.5551 6.0332L46.2016 5.7793C46.0518 5.36914 45.977 4.90365 45.977 4.38281C45.977 3.98568 46.0225 3.59831 46.1137 3.2207C47.0577 3.03841 48.1449 2.9082 49.3754 2.83008C50.6124 2.74544 51.6736 2.70312 52.559 2.70312C53.197 2.70312 53.6755 2.70638 53.9945 2.71289L54.6098 3.06445C55.7035 6.06576 56.8135 10.125 57.9398 15.2422C57.9529 15.2943 57.9756 15.3984 58.0082 15.5547C58.0473 15.7109 58.0766 15.8607 58.0961 16.0039C58.1156 16.1406 58.1254 16.2708 58.1254 16.3945C58.1254 16.9414 57.9301 17.3841 57.5395 17.7227C56.9926 17.9375 56.3318 18.0449 55.557 18.0449C55.1924 18.0449 54.8246 18.0059 54.4535 17.9277C54.0824 17.8496 53.8318 17.7292 53.7016 17.5664L53.8187 15.0469L53.5746 13.7383C53.1514 13.7643 52.6534 13.7773 52.0805 13.7773C51.4685 13.7773 50.8956 13.7578 50.3617 13.7188L50.2445 14.2461C49.9906 15.3789 49.7823 16.1829 49.6195 16.6582C49.4633 17.1335 49.2289 17.485 48.9164 17.7129C48.6104 17.9408 48.1514 18.0547 47.5395 18.0547C47.1423 18.0547 46.7419 18.0026 46.3383 17.8984C45.9346 17.8008 45.5701 17.6673 45.2445 17.498C44.919 17.3288 44.6749 17.1465 44.5121 16.9512C44.5121 16.4824 44.5837 16.0365 44.727 15.6133C44.8702 15.1901 45.0655 14.8906 45.3129 14.7148ZM52.1586 6.12109H51.7094L51.0062 10.9355H53.1937L52.1586 6.12109ZM62.0395 14.4512C62.0395 13.39 62.0525 12.5892 62.0785 12.0488C62.1046 11.502 62.1729 10.7012 62.2836 9.64648L61.1508 9.5C61.0141 9.07682 60.9229 8.69922 60.8773 8.36719C60.8383 8.03516 60.8187 7.60547 60.8187 7.07812C60.9229 6.98698 61.0954 6.87956 61.3363 6.75586C61.5837 6.62565 61.8767 6.51497 62.2152 6.42383C62.5538 6.32617 62.8956 6.27734 63.2406 6.27734C64.0284 6.27734 64.585 6.44661 64.9105 6.78516C65.2426 7.1237 65.4086 7.63151 65.4086 8.30859C65.4086 8.6862 65.3533 9.19727 65.2426 9.8418C65.0603 10.877 64.9691 11.4206 64.9691 11.4727C64.9691 11.5052 64.9919 11.5378 65.0375 11.5703C65.0831 11.5964 65.1319 11.6094 65.184 11.6094C65.2426 11.6094 65.2816 11.5866 65.3012 11.541C65.5616 10.5059 65.822 9.63997 66.0824 8.94336C66.3428 8.24674 66.7367 7.62826 67.2641 7.08789C67.7914 6.54753 68.475 6.27734 69.3148 6.27734C70.3565 6.27734 71.1052 6.59635 71.5609 7.23438C72.0167 7.86589 72.2445 8.66341 72.2445 9.62695C72.2445 10.4863 72.1436 11.3164 71.9418 12.1172C71.74 12.9115 71.4893 13.7415 71.1898 14.6074C71.2029 14.5749 71.1573 14.7018 71.0531 14.9883L71.0727 15.0078L72.4984 14.4219C73.0062 14.8581 73.3025 15.4375 73.3871 16.1602C73.3871 16.2057 73.2406 16.3913 72.9477 16.7168C72.6612 17.0423 72.2803 17.3451 71.8051 17.625C71.3298 17.9049 70.7829 18.0449 70.1645 18.0449C69.546 18.0449 69.0414 17.8789 68.6508 17.5469C68.2602 17.2148 68.0648 16.6484 68.0648 15.8477C68.0648 15.2096 68.0909 14.3568 68.143 13.2891C68.1951 12.2214 68.2471 11.362 68.2992 10.7109C68.1299 10.5286 67.9216 10.431 67.6742 10.418C67.4464 10.7109 67.1111 11.2969 66.6684 12.1758C66.2256 13.0547 65.9131 13.7122 65.7309 14.1484C65.7178 14.2396 65.7113 14.3275 65.7113 14.4121C65.7113 14.7376 65.7602 15.1771 65.8578 15.7305C65.9555 16.2773 66.0759 16.7884 66.2191 17.2637C66.102 17.485 65.8611 17.6706 65.4965 17.8203C65.1319 17.9701 64.6827 18.0449 64.1488 18.0449C63.6671 18.0449 63.2797 18.0059 62.9867 17.9277C62.7003 17.8496 62.4984 17.7682 62.3812 17.6836C62.2641 17.5924 62.2055 17.5371 62.2055 17.5176C62.199 17.459 62.1827 17.306 62.1566 17.0586C62.1306 16.8047 62.1046 16.4531 62.0785 16.0039C62.0525 15.5482 62.0395 15.0306 62.0395 14.4512ZM76.725 11.502C76.725 8.48112 76.7836 6.4043 76.9008 5.27148L75.7973 5.07617C75.641 4.47721 75.5629 3.83268 75.5629 3.14258C75.6605 3.01888 75.8428 2.86589 76.1098 2.68359C76.3767 2.5013 76.6859 2.3418 77.0375 2.20508C77.3956 2.06836 77.7504 2 78.102 2C78.9027 2 79.4984 2.20508 79.8891 2.61523C80.2797 3.02539 80.475 3.65365 80.475 4.5C80.475 4.87109 80.4424 5.47005 80.3773 6.29688C80.3122 7.11719 80.2178 7.99935 80.0941 8.94336C79.9704 9.88086 79.8272 10.7174 79.6645 11.4531C79.6645 11.4922 79.6872 11.528 79.7328 11.5605C79.7784 11.5931 79.8272 11.6094 79.8793 11.6094C79.9379 11.6094 79.977 11.5866 79.9965 11.541C80.2569 10.5059 80.5173 9.63997 80.7777 8.94336C81.0381 8.24674 81.432 7.62826 81.9594 7.08789C82.4867 6.54753 83.1703 6.27734 84.0102 6.27734C85.0518 6.27734 85.8005 6.59635 86.2562 7.23438C86.712 7.86589 86.9398 8.66341 86.9398 9.62695C86.9398 10.4863 86.8389 11.3164 86.6371 12.1172C86.4353 12.9115 86.1846 13.7415 85.8852 14.6074C85.8982 14.5749 85.8526 14.7018 85.7484 14.9883L85.768 15.0078L87.2133 14.4023C87.7211 14.8385 88.0173 15.418 88.102 16.1406C88.102 16.1862 87.9555 16.375 87.6625 16.707C87.3695 17.0326 86.9822 17.3385 86.5004 17.625C86.0251 17.9049 85.4783 18.0449 84.8598 18.0449C84.2413 18.0449 83.7367 17.8789 83.3461 17.5469C82.9555 17.2148 82.7602 16.6484 82.7602 15.8477C82.7602 15.2096 82.7862 14.3568 82.8383 13.2891C82.8904 12.2214 82.9424 11.362 82.9945 10.7109C82.8253 10.5286 82.6169 10.431 82.3695 10.418C82.1417 10.7109 81.8064 11.2969 81.3637 12.1758C80.921 13.0547 80.6085 13.7122 80.4262 14.1484C80.4131 14.2396 80.4066 14.3275 80.4066 14.4121C80.4066 14.7376 80.4555 15.1771 80.5531 15.7305C80.6508 16.2773 80.7712 16.7884 80.9145 17.2637C80.7973 17.485 80.5564 17.6706 80.1918 17.8203C79.8272 17.9701 79.378 18.0449 78.8441 18.0449C78.3624 18.0449 77.975 18.0059 77.682 17.9277C77.3956 17.8496 77.1937 17.7682 77.0766 17.6836C76.9594 17.5924 76.9008 17.5371 76.9008 17.5176C76.8943 17.459 76.878 17.306 76.852 17.0586C76.8259 16.8047 76.7999 16.4531 76.7738 16.0039C76.7478 15.5482 76.7348 15.0306 76.7348 14.4512L76.725 11.502Z" fill="white"/>
<path d="M5.20312 14.5293L5.94151 12.6706L4.54445 12.1156L3.62295 13.3033L5.20312 14.5293ZM7.18555 15.2422L6.6807 17.1774L8.39645 17.625L9.04636 15.9752L7.18555 15.2422ZM7.20508 11.6094L9.20223 11.5022L9.20168 11.4928L7.20508 11.6094ZM7.10742 5.80859L9.1007 5.97242L9.26809 3.93587L7.22841 3.81226L7.10742 5.80859ZM5.49609 5.71094L5.61708 3.7146L3.51623 3.58728L3.49618 5.69189L5.49609 5.71094ZM5.4668 8.78711L6.09925 10.6845L7.45312 10.2332L7.46671 8.80616L5.4668 8.78711ZM3.46484 9.02148L2.2271 10.5925L2.69947 10.9646L3.29875 11.0146L3.46484 9.02148ZM2.79102 8.2207L1.09502 9.2807L1.10177 9.2915L1.10866 9.30222L2.79102 8.2207ZM2.36133 4.00195L0.666947 2.93937L2.36133 4.00195ZM3.37695 3.21094L4.00089 5.11112L4.01364 5.10694L4.02632 5.10258L3.37695 3.21094ZM5.125 2.91797L5.01025 0.921238L5.00024 0.921864L5.125 2.91797ZM9.11914 2.77148L9.16168 4.77105L9.16997 4.77084L9.11914 2.77148ZM13.5234 2.71289L15.0975 1.47913L14.497 0.712891H13.5234V2.71289ZM13.9434 3.52344L12.03 4.10576L12.0358 4.12468L12.0419 4.14348L13.9434 3.52344ZM11.0723 6.19922L11.5631 4.26039L9.16827 3.6541L9.07373 6.12268L11.0723 6.19922ZM10.5645 14.6758L12.5563 14.8569L12.5572 14.846L10.5645 14.6758ZM9.86133 17.0098L11.4542 18.2192L11.4613 18.2098L9.86133 17.0098ZM5.62305 17.7617L4.93383 19.6392L4.94145 19.642L5.62305 17.7617ZM4.46094 16.7168L2.46117 16.686L2.45349 17.1852L2.6813 17.6294L4.46094 16.7168ZM4.61719 15.5938L6.53287 16.1685L6.53592 16.1581L4.61719 15.5938ZM5.20312 14.5293L4.46474 16.388C4.94335 16.5781 5.32777 16.7286 5.61418 16.8377L6.32617 14.9688L7.03816 13.0998C6.7777 13.0005 6.41343 12.8581 5.94151 12.6706L5.20312 14.5293ZM6.32617 14.9688L5.61418 16.8377C5.95917 16.9692 6.31503 17.082 6.6807 17.1774L7.18555 15.2422L7.69039 13.307C7.45711 13.2461 7.24004 13.1767 7.03816 13.0998L6.32617 14.9688ZM7.18555 15.2422L9.04636 15.9752C9.26179 15.4284 9.3125 14.8515 9.3125 14.3633H7.3125H5.3125C5.3125 14.476 5.30587 14.5438 5.30131 14.5754C5.2964 14.6093 5.29706 14.5794 5.32473 14.5091L7.18555 15.2422ZM7.3125 14.3633H9.3125C9.3125 13.8011 9.2736 12.8327 9.20221 11.5022L7.20508 11.6094L5.20795 11.7165C5.27979 13.0553 5.3125 13.9228 5.3125 14.3633H7.3125ZM7.20508 11.6094L9.20168 11.4928C9.09818 9.72039 9.04883 8.3993 9.04883 7.50781H7.04883H5.04883C5.04883 8.51737 5.10364 9.93065 5.20848 11.726L7.20508 11.6094ZM7.04883 7.50781H9.04883C9.04883 6.88611 9.06743 6.37719 9.1007 5.97242L7.10742 5.80859L5.11414 5.64476C5.06929 6.19052 5.04883 6.81441 5.04883 7.50781H7.04883ZM7.10742 5.80859L7.22841 3.81226L5.61708 3.7146L5.49609 5.71094L5.3751 7.70727L6.98643 7.80493L7.10742 5.80859ZM5.49609 5.71094L3.49618 5.69189L3.46689 8.76806L5.4668 8.78711L7.46671 8.80616L7.496 5.72998L5.49609 5.71094ZM5.4668 8.78711L4.83434 6.88974C4.58435 6.97307 4.25291 7.03125 3.81641 7.03125V9.03125V11.0312C4.60386 11.0312 5.37268 10.9267 6.09925 10.6845L5.4668 8.78711ZM3.81641 9.03125V7.03125C3.75113 7.03125 3.70204 7.03056 3.66686 7.02958C3.62906 7.02853 3.62004 7.02748 3.63093 7.02839L3.46484 9.02148L3.29875 11.0146C3.46274 11.0282 3.64766 11.0312 3.81641 11.0312V9.03125ZM3.46484 9.02148L4.70259 7.4505C4.72658 7.4694 4.71291 7.46291 4.66556 7.40664C4.61958 7.352 4.5549 7.26601 4.47337 7.13919L2.79102 8.2207L1.10866 9.30222C1.40139 9.75758 1.76655 10.2296 2.2271 10.5925L3.46484 9.02148ZM2.79102 8.2207L4.48701 7.16071C4.35363 6.9473 4.22988 6.68612 4.12467 6.36593L2.22461 6.99023L0.324546 7.61454C0.518818 8.2058 0.77267 8.76494 1.09502 9.2807L2.79102 8.2207ZM2.22461 6.99023L4.12467 6.36593C4.03242 6.08517 4 5.85675 4 5.67188H2H0C0 6.33335 0.117315 6.98384 0.324546 7.61454L2.22461 6.99023ZM2 5.67188H4C4 5.41206 4.02194 5.23748 4.0451 5.13048C4.0683 5.02322 4.08548 5.01705 4.05571 5.06453L2.36133 4.00195L0.666947 2.93937C0.139198 3.78092 0 4.77415 0 5.67188H2ZM2.36133 4.00195L4.05571 5.06453C4.0584 5.06023 4.05718 5.06289 4.05098 5.06982C4.04467 5.07688 4.03578 5.08547 4.02483 5.094C4.0139 5.10251 4.00435 5.10829 3.99807 5.11158C3.99199 5.11478 3.99211 5.11401 4.00089 5.11112L3.37695 3.21094L2.75301 1.31075C1.87927 1.59765 1.15932 2.15424 0.666947 2.93937L2.36133 4.00195ZM3.37695 3.21094L4.02632 5.10258C4.22429 5.03462 4.60821 4.95417 5.24976 4.91407L5.125 2.91797L5.00024 0.921864C4.18345 0.972914 3.40201 1.08777 2.72758 1.31929L3.37695 3.21094ZM5.125 2.91797L5.23975 4.91467C6.3419 4.85133 7.64814 4.80324 9.16168 4.77103L9.11914 2.77148L9.0766 0.771936C7.53025 0.804838 6.17372 0.854397 5.01025 0.921263L5.125 2.91797ZM9.11914 2.77148L9.16997 4.77084C10.6911 4.73217 12.1422 4.71289 13.5234 4.71289V2.71289V0.712891C12.1052 0.712891 10.6201 0.732679 9.06831 0.772131L9.11914 2.77148ZM13.5234 2.71289L11.9493 3.94665C11.9823 3.98872 12.0091 4.03701 12.03 4.10576L13.9434 3.52344L15.8567 2.94111C15.6953 2.41091 15.4422 1.91883 15.0975 1.47913L13.5234 2.71289ZM13.9434 3.52344L12.0419 4.14348C12.0777 4.25319 12.0898 4.34368 12.0898 4.42188H14.0898H16.0898C16.0898 3.90112 16.0044 3.39264 15.8448 2.9034L13.9434 3.52344ZM14.0898 4.42188H12.0898C12.0898 4.5314 12.0759 4.5887 12.0697 4.60892C12.0646 4.62581 12.0628 4.62463 12.0668 4.61935L13.6602 5.82812L15.2535 7.0369C15.8494 6.25149 16.0898 5.33637 16.0898 4.42188H14.0898ZM13.6602 5.82812L12.0668 4.61935C12.0909 4.58758 12.1257 4.54979 12.172 4.51279C12.2186 4.47565 12.2672 4.4469 12.313 4.42647C12.4055 4.3852 12.4471 4.39453 12.3906 4.39453V6.39453V8.39453C13.4483 8.39453 14.5178 8.00671 15.2535 7.0369L13.6602 5.82812ZM12.3906 6.39453V4.39453C12.2479 4.39453 11.9827 4.36662 11.5631 4.26039L11.0723 6.19922L10.5814 8.13805C11.1904 8.29223 11.8042 8.39453 12.3906 8.39453V6.39453ZM11.0723 6.19922L9.07373 6.12268C8.95754 9.15661 8.78998 11.9505 8.57171 14.5055L10.5645 14.6758L12.5572 14.846C12.7816 12.2188 12.9526 9.36162 13.0708 6.27576L11.0723 6.19922ZM10.5645 14.6758L8.57267 14.4947C8.53499 14.9091 8.47659 15.2333 8.40956 15.4804L10.3398 16.0039L12.2701 16.5274C12.4114 16.0063 12.5028 15.4451 12.5562 14.8569L10.5645 14.6758ZM10.3398 16.0039L8.40956 15.4804C8.36429 15.6474 8.3082 15.7473 8.26133 15.8098L9.86133 17.0098L11.4613 18.2098C11.8441 17.6993 12.1071 17.1287 12.2701 16.5274L10.3398 16.0039ZM9.86133 17.0098L8.26844 15.8003C8.26408 15.8061 8.23259 15.8543 8.07852 15.9099L8.75781 17.791L9.4371 19.6721C10.2205 19.3892 10.9247 18.9166 11.4542 18.2192L9.86133 17.0098ZM8.75781 17.791L8.07852 15.9099C7.85517 15.9906 7.57112 16.0449 7.20508 16.0449V18.0449V20.0449C7.97185 20.0449 8.72295 19.93 9.4371 19.6721L8.75781 17.791ZM7.20508 18.0449V16.0449C6.91238 16.0449 6.61532 15.9941 6.30465 15.8814L5.62305 17.7617L4.94145 19.642C5.67244 19.907 6.43007 20.0449 7.20508 20.0449V18.0449ZM5.62305 17.7617L6.31225 15.8842C6.2947 15.8778 6.2865 15.8731 6.28462 15.8719C6.28348 15.8713 6.28318 15.871 6.28343 15.8712C6.28352 15.8713 6.28365 15.8714 6.28379 15.8715C6.28385 15.8715 6.28391 15.8716 6.28395 15.8716C6.284 15.8717 6.28402 15.8717 6.28402 15.8717C6.28402 15.8717 6.28398 15.8716 6.28392 15.8716C6.28386 15.8715 6.28375 15.8714 6.28361 15.8713C6.28333 15.871 6.28285 15.8705 6.28216 15.8698C6.28083 15.8683 6.27839 15.8655 6.27495 15.861C6.26821 15.8521 6.25605 15.8343 6.24057 15.8042L4.46094 16.7168L2.6813 17.6294C3.16054 18.5639 3.92652 19.2694 4.93384 19.6392L5.62305 17.7617ZM4.46094 16.7168L6.4607 16.7476C6.46504 16.4656 6.49925 16.2804 6.53284 16.1684L4.61719 15.5938L2.70153 15.0191C2.53981 15.5581 2.46986 16.1216 2.46117 16.686L4.46094 16.7168ZM4.61719 15.5938L6.53592 16.1581C6.54175 16.1383 6.5892 16.0055 6.7833 15.7553L5.20312 14.5293L3.62295 13.3033C3.23112 13.8083 2.88794 14.3852 2.69846 15.0294L4.61719 15.5938ZM18.1391 11.502H16.1391L16.1391 11.5086L18.1391 11.502ZM18.3148 5.27148L20.3042 5.47728L20.4957 3.62639L18.6634 3.30209L18.3148 5.27148ZM17.2113 5.07617L15.2761 5.58102L15.5998 6.82204L16.8628 7.04556L17.2113 5.07617ZM16.977 3.14258L15.4072 1.90329L14.977 2.44825V3.14258H16.977ZM18.4516 2.20508L17.7381 0.336605L17.7267 0.341068L18.4516 2.20508ZM21.7914 6.29688L23.7851 6.45511L23.7852 6.45387L21.7914 6.29688ZM21.5082 8.94336L23.491 9.20498L23.4913 9.20321L21.5082 8.94336ZM21.0785 11.4531L19.1257 11.0211L19.0785 11.2345V11.4531H21.0785ZM21.4105 11.541L23.2488 12.3289L23.3114 12.1829L23.3501 12.029L21.4105 11.541ZM27.6703 7.23438L26.0428 8.39686L26.0485 8.40475L27.6703 7.23438ZM28.0512 12.1172L29.9896 12.6097L29.9905 12.606L28.0512 12.1172ZM27.2992 14.6074L25.4091 13.9537L29.1562 15.3502L27.2992 14.6074ZM27.1625 14.9883L25.2829 14.3048L24.8476 15.5018L25.7483 16.4025L27.1625 14.9883ZM27.182 15.0078L25.7678 16.422L26.7169 17.3711L27.9548 16.8525L27.182 15.0078ZM28.6273 14.4023L29.9305 12.8852L28.9937 12.0805L27.8546 12.5577L28.6273 14.4023ZM29.516 16.1406H31.516V16.0239L31.5024 15.908L29.516 16.1406ZM29.0766 16.707L30.5632 18.045L30.5697 18.0376L30.5762 18.0303L29.0766 16.707ZM27.9145 17.625L28.9295 19.3483L28.9366 19.3441L27.9145 17.625ZM24.4086 10.7109L26.4022 10.8704L26.4723 9.99419L25.8742 9.35004L24.4086 10.7109ZM23.7836 10.418L23.8887 8.42073L22.846 8.36585L22.2049 9.19009L23.7836 10.418ZM21.8402 14.1484L19.9949 13.3773L19.8964 13.6128L19.8603 13.8656L21.8402 14.1484ZM21.9672 15.7305L19.9976 16.078L19.9983 16.0821L21.9672 15.7305ZM22.3285 17.2637L24.0961 18.1994L24.4805 17.4733L24.2434 16.6866L22.3285 17.2637ZM21.6059 17.8203L20.846 15.9703L21.6059 17.8203ZM19.0961 17.9277L18.5699 19.8573L18.5808 19.8602L19.0961 17.9277ZM18.4906 17.6836L17.2627 19.2623L17.2908 19.2841L17.3196 19.305L18.4906 17.6836ZM18.3148 17.5176H20.3148V17.4068L20.3026 17.2967L18.3148 17.5176ZM18.266 17.0586L16.2764 17.2627L16.277 17.268L18.266 17.0586ZM18.1879 16.0039L16.1911 16.118L16.1912 16.1197L18.1879 16.0039ZM18.1488 14.4512H20.1488L20.1488 14.4445L18.1488 14.4512ZM18.1391 11.502H20.1391C20.1391 8.47346 20.1991 6.49377 20.3042 5.47728L18.3148 5.27148L16.3255 5.06569C16.1962 6.31483 16.1391 8.48878 16.1391 11.502H18.1391ZM18.3148 5.27148L18.6634 3.30209L17.5599 3.10678L17.2113 5.07617L16.8628 7.04556L17.9663 7.24088L18.3148 5.27148ZM17.2113 5.07617L19.1466 4.57133C19.0379 4.15484 18.977 3.68157 18.977 3.14258H16.977H14.977C14.977 3.98379 15.0722 4.79959 15.2761 5.58102L17.2113 5.07617ZM16.977 3.14258L18.5467 4.38187C18.5097 4.42879 18.4817 4.45721 18.472 4.46677C18.4615 4.47718 18.4604 4.47733 18.4727 4.46701C18.499 4.44492 18.555 4.40129 18.6518 4.3352L17.5238 2.68359L16.3959 1.03199C16.0989 1.23479 15.7031 1.52841 15.4072 1.90329L16.977 3.14258ZM17.5238 2.68359L18.6518 4.3352C18.774 4.25168 18.9439 4.15951 19.1765 4.06909L18.4516 2.20508L17.7267 0.341068C17.2561 0.524082 16.8075 0.750921 16.3959 1.03199L17.5238 2.68359ZM18.4516 2.20508L19.165 4.07351C19.3158 4.01591 19.4294 4 19.516 4V2V0C18.8995 0 18.3034 0.120813 17.7382 0.336641L18.4516 2.20508ZM19.516 2V4C19.7521 4 19.872 4.03098 19.9124 4.04488C19.9418 4.05503 19.9043 4.04652 19.8548 3.99454L21.3031 2.61523L22.7514 1.23592C21.8492 0.288649 20.6334 0 19.516 0V2ZM21.3031 2.61523L19.8548 3.99454C19.8061 3.94339 19.8117 3.9201 19.8327 3.98777C19.8564 4.06374 19.8891 4.22363 19.8891 4.5H21.8891H23.8891C23.8891 3.38948 23.6372 2.16604 22.7514 1.23592L21.3031 2.61523ZM21.8891 4.5H19.8891C19.8891 4.7863 19.8623 5.31775 19.7976 6.13988L21.7914 6.29688L23.7852 6.45387C23.8507 5.62236 23.8891 4.95589 23.8891 4.5H21.8891ZM21.7914 6.29688L19.7977 6.13864C19.7356 6.92023 19.6451 7.76818 19.5252 8.68351L21.5082 8.94336L23.4913 9.20321C23.6187 8.23052 23.717 7.31414 23.7851 6.45511L21.7914 6.29688ZM21.5082 8.94336L19.5254 8.68174C19.4074 9.57572 19.2734 10.3538 19.1257 11.0211L21.0785 11.4531L23.0313 11.8852C23.2092 11.0811 23.3616 10.186 23.491 9.20498L21.5082 8.94336ZM21.0785 11.4531H19.0785C19.0785 12.3876 19.6559 12.9534 19.9844 13.188L21.1469 11.5605L22.3094 9.93308C22.5467 10.1026 23.0785 10.5967 23.0785 11.4531H21.0785ZM21.1469 11.5605L19.9844 13.188C20.3422 13.4436 20.7925 13.6094 21.2934 13.6094V11.6094V9.60938C21.6901 9.60938 22.0427 9.74261 22.3094 9.93308L21.1469 11.5605ZM21.2934 11.6094V13.6094C21.5745 13.6094 21.9713 13.555 22.3743 13.3198C22.8003 13.0714 23.0873 12.7057 23.2488 12.3289L21.4105 11.541L19.5723 10.7532C19.7142 10.4219 19.972 10.0904 20.3589 9.86473C20.7229 9.65238 21.0709 9.60938 21.2934 9.60938V11.6094ZM21.4105 11.541L23.3501 12.029C23.5995 11.0377 23.8392 10.2481 24.0652 9.64369L22.1918 8.94336L20.3184 8.24303C20.0235 9.03184 19.7424 9.97404 19.471 11.0531L21.4105 11.541ZM22.1918 8.94336L24.0652 9.64369C24.2267 9.2115 24.4685 8.8293 24.8048 8.48475L23.3734 7.08789L21.9421 5.69103C21.2236 6.42721 20.6777 7.28199 20.3184 8.24303L22.1918 8.94336ZM23.3734 7.08789L24.8048 8.48475C24.9117 8.37522 25.0567 8.27734 25.4242 8.27734V6.27734V4.27734C24.112 4.27734 22.8899 4.71984 21.9421 5.69103L23.3734 7.08789ZM25.4242 6.27734V8.27734C25.748 8.27734 25.9154 8.32775 25.983 8.35654C26.0328 8.37774 26.0369 8.38855 26.0428 8.39685L27.6703 7.23438L29.2978 6.0719C28.3493 4.744 26.8793 4.27734 25.4242 4.27734V6.27734ZM27.6703 7.23438L26.0485 8.40475C26.2052 8.62184 26.3539 8.98251 26.3539 9.62695H28.3539H30.3539C30.3539 8.34431 30.0469 7.10993 29.2921 6.064L27.6703 7.23438ZM28.3539 9.62695H26.3539C26.3539 10.3282 26.2718 10.9938 26.1118 11.6284L28.0512 12.1172L29.9905 12.606C30.2342 11.639 30.3539 10.6444 30.3539 9.62695H28.3539ZM28.0512 12.1172L26.1128 11.6246C25.9263 12.3586 25.6923 13.1348 25.4091 13.9537L27.2992 14.6074L29.1894 15.2612C29.5051 14.3483 29.7724 13.4643 29.9896 12.6097L28.0512 12.1172ZM27.2992 14.6074L29.1562 15.3502C29.1547 15.3539 29.1518 15.3611 29.1479 15.3705C29.1452 15.3769 29.1362 15.3986 29.1237 15.4264C29.118 15.439 29.1043 15.469 29.0853 15.5066C29.0758 15.5254 29.0587 15.5583 29.0356 15.5985C29.0195 15.6266 28.9676 15.7166 28.8866 15.8219C28.8485 15.8714 28.7613 15.9809 28.6286 16.0986C28.5516 16.1669 28.1788 16.5013 27.5716 16.5841C27.28 16.6023 26.6692 16.4999 26.3668 16.3706C26.1104 16.2092 25.7246 15.8327 25.5899 15.6373C25.3488 15.2385 25.3168 14.8662 25.3089 14.7757C25.2876 14.5303 25.3189 14.3368 25.3228 14.311C25.3324 14.2452 25.3434 14.1938 25.349 14.1688C25.3606 14.1167 25.3718 14.0765 25.3758 14.0621C25.3812 14.043 25.3858 14.0277 25.3885 14.0188C25.3939 14.0011 25.3984 13.9875 25.4002 13.982C25.4041 13.9699 25.407 13.9616 25.4073 13.9609C25.4079 13.9592 25.4042 13.9697 25.3924 14.0025C25.3711 14.0618 25.3349 14.1618 25.2829 14.3048L27.1625 14.9883L29.0421 15.6718C29.0942 15.5283 29.1329 15.4216 29.1572 15.354C29.1682 15.3232 29.18 15.2902 29.1887 15.2649C29.191 15.2583 29.1955 15.2453 29.2005 15.2299C29.2029 15.2226 29.2078 15.2077 29.2136 15.1889C29.2137 15.1883 29.2349 15.1211 29.2537 15.0366C29.2593 15.0114 29.2703 14.96 29.28 14.8941C29.2838 14.8682 29.3152 14.6746 29.2939 14.4292C29.286 14.3387 29.254 13.9664 29.0128 13.5676C28.8782 13.3721 28.4923 12.9957 28.236 12.8343C27.9335 12.705 27.3228 12.6026 27.0311 12.6208C26.424 12.7036 26.0511 13.038 25.9741 13.1063C25.8414 13.224 25.7542 13.3335 25.7161 13.3831C25.6351 13.4884 25.5831 13.5785 25.5669 13.6066C25.5438 13.6469 25.5267 13.6799 25.5171 13.6988C25.498 13.7366 25.4841 13.767 25.4782 13.78C25.4577 13.8254 25.4425 13.8641 25.4423 13.8646L27.2992 14.6074ZM27.1625 14.9883L25.7483 16.4025L25.7678 16.422L27.182 15.0078L28.5962 13.5936L28.5767 13.5741L27.1625 14.9883ZM27.182 15.0078L27.9548 16.8525L29.4001 16.247L28.6273 14.4023L27.8546 12.5577L26.4093 13.1631L27.182 15.0078ZM28.6273 14.4023L27.3242 15.9195C27.4165 15.9988 27.4978 16.1022 27.5296 16.3733L29.516 16.1406L31.5024 15.908C31.3649 14.7337 30.8538 13.6783 29.9305 12.8852L28.6273 14.4023ZM29.516 16.1406H27.516C27.516 15.8925 27.563 15.6995 27.5927 15.5965C27.625 15.4843 27.6612 15.3972 27.6853 15.3437C27.7322 15.2395 27.7767 15.1671 27.7926 15.1417C27.8266 15.0872 27.8463 15.0642 27.826 15.0904C27.7917 15.1346 27.7147 15.2276 27.5769 15.3838L29.0766 16.707L30.5762 18.0303C30.7314 17.8544 30.8741 17.687 30.9863 17.5424C31.0392 17.4742 31.1139 17.3748 31.1845 17.2617C31.2187 17.207 31.2769 17.1097 31.333 16.9852C31.3635 16.9174 31.516 16.5878 31.516 16.1406H29.516ZM29.0766 16.707L27.59 15.3691C27.4633 15.5098 27.2468 15.6951 26.8923 15.9059L27.9145 17.625L28.9366 19.3441C29.5456 18.982 30.1039 18.5553 30.5632 18.045L29.0766 16.707ZM27.9145 17.625L26.8994 15.9017C26.7678 15.9793 26.5796 16.0449 26.2738 16.0449V18.0449V20.0449C27.205 20.0449 28.1106 19.8306 28.9295 19.3483L27.9145 17.625ZM26.2738 18.0449V16.0449C26.1428 16.0449 26.0771 16.0274 26.0566 16.0206C26.0409 16.0154 26.0466 16.0155 26.0555 16.023L24.7602 17.5469L23.4649 19.0708C24.288 19.7704 25.283 20.0449 26.2738 20.0449V18.0449ZM24.7602 17.5469L26.0555 16.023C26.1112 16.0704 26.1519 16.1198 26.179 16.1614C26.2052 16.2015 26.2129 16.2254 26.2114 16.2211C26.2097 16.2159 26.1999 16.1853 26.1907 16.1215C26.1816 16.0576 26.1742 15.9678 26.1742 15.8477H24.1742H22.1742C22.1742 16.9062 22.426 18.1877 23.4649 19.0708L24.7602 17.5469ZM24.1742 15.8477H26.1742C26.1742 15.2565 26.1986 14.4402 26.25 13.3865L24.2523 13.2891L22.2547 13.1916C22.202 14.2733 22.1742 15.1628 22.1742 15.8477H24.1742ZM24.2523 13.2891L26.25 13.3865C26.3016 12.3283 26.3525 11.492 26.4022 10.8704L24.4086 10.7109L22.415 10.5514C22.3605 11.2319 22.3073 12.1144 22.2547 13.1916L24.2523 13.2891ZM24.4086 10.7109L25.8742 9.35004C25.3529 8.78871 24.6574 8.46119 23.8887 8.42073L23.7836 10.418L23.6785 12.4152C23.5645 12.4092 23.4234 12.3807 23.2765 12.3119C23.1298 12.2431 23.0189 12.1535 22.943 12.0718L24.4086 10.7109ZM23.7836 10.418L22.2049 9.19009C21.8413 9.65759 21.4275 10.4106 20.9915 11.2761L22.7777 12.1758L24.5639 13.0755C25.0134 12.1832 25.2702 11.7643 25.3623 11.6459L23.7836 10.418ZM22.7777 12.1758L20.9915 11.2761C20.5451 12.1623 20.2059 12.8723 19.9949 13.3773L21.8402 14.1484L23.6856 14.9196C23.8391 14.5522 24.1249 13.9471 24.5639 13.0755L22.7777 12.1758ZM21.8402 14.1484L19.8603 13.8656C19.8351 14.0423 19.8207 14.225 19.8207 14.4121H21.8207H23.8207C23.8207 14.4299 23.8193 14.4368 23.8201 14.4313L21.8402 14.1484ZM21.8207 14.4121H19.8207C19.8207 14.9083 19.892 15.4796 19.9976 16.078L21.9672 15.7305L23.9368 15.3829C23.8471 14.8746 23.8207 14.567 23.8207 14.4121H21.8207ZM21.9672 15.7305L19.9983 16.0821C20.108 16.6963 20.2456 17.2833 20.4136 17.8408L22.3285 17.2637L24.2434 16.6866C24.125 16.2935 24.0217 15.8584 23.936 15.3789L21.9672 15.7305ZM22.3285 17.2637L20.5609 16.3279C20.6617 16.1376 20.7808 16.0296 20.8395 15.9844C20.8946 15.942 20.9095 15.9442 20.846 15.9703L21.6059 17.8203L22.3657 19.6704C22.9284 19.4392 23.6654 19.013 24.0961 18.1994L22.3285 17.2637ZM21.6059 17.8203L20.846 15.9703C20.7916 15.9926 20.6182 16.0449 20.2582 16.0449V18.0449V20.0449C20.9659 20.0449 21.691 19.9475 22.3657 19.6704L21.6059 17.8203ZM20.2582 18.0449V16.0449C19.8612 16.0449 19.6677 16.0103 19.6114 15.9953L19.0961 17.9277L18.5808 19.8602C19.1105 20.0015 19.6917 20.0449 20.2582 20.0449V18.0449ZM19.0961 17.9277L19.6223 15.9982C19.5778 15.9861 19.5435 15.9757 19.5182 15.9674C19.4926 15.959 19.4799 15.9541 19.4778 15.9532C19.4752 15.9521 19.4901 15.958 19.5177 15.9723C19.5319 15.9798 19.5514 15.9904 19.5749 16.0046C19.5984 16.0188 19.6278 16.0378 19.6616 16.0622L18.4906 17.6836L17.3196 19.305C17.7452 19.6123 18.2435 19.7682 18.5699 19.8573L19.0961 17.9277ZM18.4906 17.6836L19.7185 16.1049C19.676 16.0718 19.6914 16.0813 19.732 16.1197C19.7476 16.1344 19.8187 16.2014 19.9008 16.3063C19.9414 16.3582 20.0199 16.4636 20.0962 16.6119C20.1574 16.731 20.3148 17.0606 20.3148 17.5176H18.3148H16.3148C16.3148 17.9794 16.4741 18.315 16.539 18.4413C16.619 18.5967 16.7029 18.7103 16.7508 18.7716C16.8476 18.8952 16.9407 18.9854 16.9855 19.0278C17.0848 19.1215 17.1881 19.2042 17.2627 19.2623L18.4906 17.6836ZM18.3148 17.5176L20.3026 17.2967C20.2969 17.2452 20.2813 17.099 20.255 16.8492L18.266 17.0586L16.277 17.268C16.3028 17.513 16.3198 17.6728 16.3271 17.7384L18.3148 17.5176ZM18.266 17.0586L20.2556 16.8545C20.234 16.644 20.2099 16.3264 20.1845 15.8882L18.1879 16.0039L16.1912 16.1197C16.2179 16.5798 16.246 16.9654 16.2765 17.2627L18.266 17.0586ZM18.1879 16.0039L20.1846 15.8898C20.1612 15.4806 20.1488 15.0021 20.1488 14.4512H18.1488H16.1488C16.1488 15.0591 16.1625 15.6158 16.1911 16.118L18.1879 16.0039ZM18.1488 14.4512L20.1488 14.4445L20.1391 11.4953L18.1391 11.502L16.1391 11.5086L16.1488 14.4578L18.1488 14.4512ZM34.5531 7.05859L35.6465 8.73327L35.6498 8.73108L34.5531 7.05859ZM39.3773 6.50195L38.9067 8.4458L38.9164 8.44814L38.9261 8.45039L39.3773 6.50195ZM40.9496 7.22461L42.2021 5.66537L42.1948 5.65946L42.1874 5.65363L40.9496 7.22461ZM41.809 8.49414L39.9116 9.1266L39.9163 9.14075L39.9213 9.15484L41.809 8.49414ZM41.975 11.5312L43.69 12.5602L43.8879 12.2304L43.9493 11.8506L41.975 11.5312ZM41.516 12.0488L42.8656 13.5249L42.8769 13.5145L42.888 13.504L41.516 12.0488ZM40.7152 12.6641L39.614 10.9945L40.7152 12.6641ZM39.8266 13.1328L39.9691 15.1277L40.2679 15.1064L40.5474 14.9984L39.8266 13.1328ZM36.0277 12.9375L36.3197 10.9589L33.7977 10.5868L34.0365 13.1249L36.0277 12.9375ZM36.5355 14.3828L34.8959 15.528L36.5355 14.3828ZM38.1859 14.9785L37.9902 12.9881L37.9869 12.9884L38.1859 14.9785ZM39.5727 14.666L40.1839 16.5703L40.191 16.568L40.1982 16.5657L39.5727 14.666ZM41.1645 14.0605L42.5787 12.6463L41.6181 11.6858L40.3711 12.2246L41.1645 14.0605ZM41.9555 15.8672L43.471 17.1722L44.0299 16.5233L43.9458 15.671L41.9555 15.8672ZM40.9691 16.7266L39.7765 15.121L39.7654 15.1293L40.9691 16.7266ZM39.3187 17.6445L40.0775 19.495L40.0854 19.4918L40.0932 19.4885L39.3187 17.6445ZM34.5336 17.2734L33.3981 18.9199L33.4062 18.9255L33.4144 18.931L34.5336 17.2734ZM32.8148 15.1641L30.9779 15.9551L30.9814 15.9633L30.985 15.9713L32.8148 15.1641ZM38.5277 9.92969L40.5117 9.67718L40.4302 9.0369L39.9898 8.56505L38.5277 9.92969ZM38.0687 9.70508L37.5425 11.6346L37.5699 11.6421L37.5975 11.6488L38.0687 9.70508ZM36.8187 9.66602L36.4899 7.6932L36.4789 7.6951L36.8187 9.66602ZM36.477 9.77344L35.0627 8.35922L34.8376 8.5844L34.6935 8.86838L36.477 9.77344ZM36.057 11.2578L34.0681 11.0472L33.8099 13.4861L36.2509 13.2484L36.057 11.2578ZM38.6645 11.0039L38.8583 12.9945L40.9085 12.7948L40.6484 10.7514L38.6645 11.0039ZM32.2387 12.1758H34.2387C34.2387 11.2738 34.3894 10.5416 34.6448 9.94278L32.8051 9.1582L30.9654 8.37363C30.4656 9.54561 30.2387 10.8251 30.2387 12.1758H32.2387ZM32.8051 9.1582L34.6448 9.94278C34.871 9.4124 35.1981 9.02599 35.6465 8.73326L34.5531 7.05859L33.4597 5.38392C32.3326 6.11984 31.4944 7.13317 30.9654 8.37363L32.8051 9.1582ZM34.5531 7.05859L35.6498 8.73108C36.046 8.47133 36.6301 8.27734 37.5219 8.27734V6.27734V4.27734C36.0438 4.27734 34.6488 4.60419 33.4564 5.3861L34.5531 7.05859ZM37.5219 6.27734V8.27734C37.9773 8.27734 38.4379 8.33228 38.9067 8.4458L39.3773 6.50195L39.848 4.55811C39.0798 4.37215 38.3034 4.27734 37.5219 4.27734V6.27734ZM39.3773 6.50195L38.9261 8.45039C39.3037 8.53783 39.5477 8.66625 39.7119 8.79559L40.9496 7.22461L42.1874 5.65363C41.4921 5.10589 40.688 4.75254 39.8286 4.55352L39.3773 6.50195ZM40.9496 7.22461L39.6971 8.78385C39.7675 8.84042 39.8458 8.92912 39.9116 9.1266L41.809 8.49414L43.7064 7.86168C43.4206 7.00448 42.926 6.24682 42.2021 5.66537L40.9496 7.22461ZM41.809 8.49414L39.9213 9.15484C40.0186 9.43303 40.0824 9.78487 40.0824 10.2324H42.0824H44.0824C44.0824 9.40393 43.9639 8.59692 43.6967 7.83344L41.809 8.49414ZM42.0824 10.2324H40.0824C40.0824 10.5425 40.0562 10.8685 40.0007 11.2119L41.975 11.5312L43.9493 11.8506C44.037 11.3086 44.0824 10.7687 44.0824 10.2324H42.0824ZM41.975 11.5312L40.26 10.5023C40.2869 10.4574 40.3072 10.4304 40.3127 10.4232C40.3189 10.4151 40.3176 10.4175 40.3053 10.4313C40.2794 10.4605 40.2288 10.5137 40.144 10.5936L41.516 12.0488L42.888 13.504C43.1393 13.2671 43.4628 12.9388 43.69 12.5602L41.975 11.5312ZM41.516 12.0488L40.1665 10.5728C40.029 10.6985 39.848 10.8402 39.614 10.9945L40.7152 12.6641L41.8164 14.3336C42.1944 14.0843 42.5473 13.8158 42.8656 13.5249L41.516 12.0488ZM40.7152 12.6641L39.614 10.9945C39.4053 11.1322 39.2361 11.2169 39.1058 11.2672L39.8266 13.1328L40.5474 14.9984C40.99 14.8274 41.4132 14.5996 41.8164 14.3336L40.7152 12.6641ZM39.8266 13.1328L39.6841 11.1379C39.4612 11.1538 39.2256 11.1621 38.977 11.1621V13.1621V15.1621C39.3143 15.1621 39.6451 15.1509 39.9691 15.1277L39.8266 13.1328ZM38.977 13.1621V11.1621C38.5218 11.1621 38.0584 11.1419 37.5867 11.1012L37.4145 13.0938L37.2423 15.0863C37.8252 15.1367 38.4035 15.1621 38.977 15.1621V13.1621ZM37.4145 13.0938L37.5867 11.1012C37.0876 11.058 36.6669 11.0101 36.3197 10.9589L36.0277 12.9375L35.7358 14.9161C36.1829 14.982 36.6866 15.0383 37.2423 15.0863L37.4145 13.0938ZM36.0277 12.9375L34.0365 13.1249C34.1173 13.9835 34.3901 14.8038 34.8959 15.528L36.5355 14.3828L38.1752 13.2376C38.1081 13.1415 38.0423 12.9983 38.0189 12.7501L36.0277 12.9375ZM36.5355 14.3828L34.8959 15.528C35.6503 16.6082 36.8074 16.998 37.9027 16.998V14.998V12.998C37.8044 12.998 37.8266 12.9816 37.9129 13.0204C37.9569 13.0402 38.0078 13.0702 38.0585 13.1122C38.1092 13.1542 38.1479 13.1985 38.1752 13.2376L36.5355 14.3828ZM37.9027 14.998V16.998C38.0689 16.998 38.2488 16.9822 38.3849 16.9686L38.1859 14.9785L37.9869 12.9884C37.9352 12.9936 37.9005 12.9965 37.8799 12.9979C37.8699 12.9986 37.8664 12.9987 37.8684 12.9986C37.8695 12.9986 37.882 12.998 37.9027 12.998V14.998ZM38.1859 14.9785L38.3817 16.9689C38.9625 16.9118 39.5694 16.7676 40.1839 16.5703L39.5727 14.666L38.9614 12.7617C38.5213 12.903 38.2037 12.9671 37.9902 12.9881L38.1859 14.9785ZM39.5727 14.666L40.1982 16.5657C40.7901 16.3708 41.3767 16.1476 41.9578 15.8965L41.1645 14.0605L40.3711 12.2246C39.8975 12.4293 39.4229 12.6097 38.9472 12.7663L39.5727 14.666ZM41.1645 14.0605L39.7502 15.4748C39.8785 15.603 39.9078 15.6672 39.9039 15.6589L41.7113 14.8027L43.5188 13.9466C43.2805 13.4434 42.9452 13.0129 42.5787 12.6463L41.1645 14.0605ZM41.7113 14.8027L39.9039 15.6589C39.884 15.6171 39.8926 15.622 39.9109 15.7015C39.9283 15.7773 39.9485 15.8949 39.9651 16.0634L41.9555 15.8672L43.9458 15.671C43.8911 15.1163 43.7797 14.4973 43.5188 13.9466L41.7113 14.8027ZM41.9555 15.8672L40.4399 14.5621C40.3831 14.6281 40.1946 14.8105 39.7765 15.1211L40.9691 16.7266L42.1618 18.3321C42.6552 17.9655 43.1242 17.575 43.471 17.1722L41.9555 15.8672ZM40.9691 16.7266L39.7654 15.1293C39.4771 15.3466 39.0795 15.5758 38.5443 15.8006L39.3187 17.6445L40.0932 19.4885C40.86 19.1664 41.5627 18.7836 42.1728 18.3238L40.9691 16.7266ZM39.3187 17.6445L38.56 15.794C38.1519 15.9614 37.7294 16.0449 37.2777 16.0449V18.0449V20.0449C38.2453 20.0449 39.1835 19.8615 40.0775 19.495L39.3187 17.6445ZM37.2777 18.0449V16.0449C36.5427 16.0449 36.033 15.8727 35.6528 15.6159L34.5336 17.2734L33.4144 18.931C34.5576 19.7029 35.8774 20.0449 37.2777 20.0449V18.0449ZM34.5336 17.2734L35.6691 15.627C35.2355 15.328 34.8945 14.9231 34.6447 14.3568L32.8148 15.1641L30.985 15.9713C31.5164 17.1759 32.3213 18.1772 33.3981 18.9199L34.5336 17.2734ZM32.8148 15.1641L34.6517 14.373C34.3886 13.7621 34.2387 13.0401 34.2387 12.1758H32.2387H30.2387C30.2387 13.512 30.4728 14.7822 30.9779 15.9551L32.8148 15.1641ZM38.5277 9.92969L39.9898 8.56505C39.5093 8.05023 38.9107 7.85125 38.54 7.76138L38.0687 9.70508L37.5975 11.6488C37.5975 11.6488 37.5969 11.6486 37.5956 11.6483C37.5943 11.6479 37.5923 11.6474 37.5897 11.6466C37.5846 11.6451 37.5765 11.6427 37.5658 11.639C37.545 11.6318 37.5103 11.6186 37.4655 11.5967C37.3806 11.5552 37.2252 11.4653 37.0656 11.2943L38.5277 9.92969ZM38.0687 9.70508L38.595 7.77555C38.1999 7.66779 37.7977 7.61719 37.3949 7.61719V9.61719V11.6172C37.4609 11.6172 37.5079 11.6252 37.5425 11.6346L38.0687 9.70508ZM37.3949 9.61719V7.61719C37.0908 7.61719 36.7887 7.64344 36.49 7.69323L36.8187 9.66602L37.1475 11.6388C37.2395 11.6235 37.3215 11.6172 37.3949 11.6172V9.61719ZM36.8187 9.66602L36.4789 7.6951C36.3423 7.71865 36.1692 7.75364 35.992 7.8093C35.9059 7.83637 35.4523 7.96963 35.0627 8.35922L36.477 9.77344L37.8912 11.1877C37.6842 11.3946 37.4831 11.5002 37.3994 11.5412C37.3005 11.5896 37.2238 11.6151 37.1914 11.6253C37.1282 11.6451 37.1064 11.6459 37.1586 11.6369L36.8187 9.66602ZM36.477 9.77344L34.6935 8.86838C34.3479 9.54938 34.1489 10.2848 34.0681 11.0472L36.057 11.2578L38.0459 11.4684C38.0824 11.1241 38.1633 10.8699 38.2605 10.6785L36.477 9.77344ZM36.057 11.2578L36.2509 13.2484L38.8583 12.9945L38.6645 11.0039L38.4706 9.01332L35.8632 9.26723L36.057 11.2578ZM38.6645 11.0039L40.6484 10.7514L40.5117 9.67718L38.5277 9.92969L36.5437 10.1822L36.6805 11.2564L38.6645 11.0039ZM45.3129 14.7148L45.936 12.8144L44.9771 12.5L44.1545 13.0845L45.3129 14.7148ZM46.3969 15.0273L45.9301 16.9721L47.859 17.435L48.3377 15.5101L46.3969 15.0273ZM48.5551 6.0332L50.5027 6.48801L51.0166 4.28716L48.7696 4.04474L48.5551 6.0332ZM46.2016 5.7793L44.3228 6.46518L44.7497 7.63426L45.987 7.76776L46.2016 5.7793ZM46.1137 3.2207L45.7345 1.25698L44.4714 1.50089L44.1695 2.75142L46.1137 3.2207ZM49.3754 2.83008L49.5021 4.82608L49.5119 4.82541L49.3754 2.83008ZM53.9945 2.71289L54.9868 0.976404L54.5446 0.7237L54.0353 0.713306L53.9945 2.71289ZM54.6098 3.06445L56.4889 2.37966L56.2381 1.6914L55.602 1.32797L54.6098 3.06445ZM57.9398 15.2422L55.9866 15.6721L55.9927 15.6998L55.9996 15.7273L57.9398 15.2422ZM58.0082 15.5547L56.0502 15.9626L56.0583 16.0014L56.0679 16.0398L58.0082 15.5547ZM58.0961 16.0039L56.1144 16.2741L56.1162 16.2867L58.0961 16.0039ZM57.5395 17.7227L58.2708 19.5842L58.5901 19.4587L58.8493 19.234L57.5395 17.7227ZM53.7016 17.5664L51.7037 17.4735L51.6687 18.2269L52.1398 18.8158L53.7016 17.5664ZM53.8187 15.0469L55.8166 15.1398L55.8274 14.9081L55.7848 14.6801L53.8187 15.0469ZM53.5746 13.7383L55.5407 13.3715L55.2164 11.6335L53.4518 11.7421L53.5746 13.7383ZM50.3617 13.7188L50.5077 11.7241L48.7842 11.598L48.4093 13.2849L50.3617 13.7188ZM50.2445 14.2461L52.1961 14.6835L52.1969 14.68L50.2445 14.2461ZM49.6195 16.6582L47.7274 16.0102L47.7234 16.0219L47.7196 16.0336L49.6195 16.6582ZM48.9164 17.7129L47.7381 16.0969L47.7299 16.1028L47.7219 16.1088L48.9164 17.7129ZM46.3383 17.8984L46.838 15.9619L46.8233 15.9581L46.8086 15.9545L46.3383 17.8984ZM44.5121 16.9512H42.5121V17.6753L42.9757 18.2315L44.5121 16.9512ZM44.727 15.6133L42.8325 14.9721L44.727 15.6133ZM52.1586 6.12109L54.1139 5.70068L53.7743 4.12109H52.1586V6.12109ZM51.7094 6.12109V4.12109H49.9802L49.7304 5.83207L51.7094 6.12109ZM51.0062 10.9355L49.0272 10.6465L48.6929 12.9355H51.0062V10.9355ZM53.1937 10.9355V12.9355H55.6695L55.1491 10.5151L53.1937 10.9355ZM45.3129 14.7148L44.6898 16.6153C45.1264 16.7585 45.5409 16.8787 45.9301 16.9721L46.3969 15.0273L46.8636 13.0826C46.6018 13.0197 46.2937 12.9317 45.936 12.8144L45.3129 14.7148ZM46.3969 15.0273L48.3377 15.5101C48.9722 12.9591 49.6939 9.95133 50.5027 6.48801L48.5551 6.0332L46.6075 5.5784C45.8017 9.02914 45.0846 12.0174 44.456 14.5446L46.3969 15.0273ZM48.5551 6.0332L48.7696 4.04474L46.4161 3.79084L46.2016 5.7793L45.987 7.76776L48.3406 8.02166L48.5551 6.0332ZM46.2016 5.7793L48.0803 5.09342C48.0246 4.94085 47.977 4.71364 47.977 4.38281H45.977H43.977C43.977 5.09365 44.0791 5.79743 44.3228 6.46518L46.2016 5.7793ZM45.977 4.38281H47.977C47.977 4.14021 48.0046 3.9105 48.0578 3.68998L46.1137 3.2207L44.1695 2.75142C44.0404 3.28611 43.977 3.83115 43.977 4.38281H45.977ZM46.1137 3.2207L46.4929 5.18443C47.3341 5.02199 48.3341 4.90022 49.5021 4.82606L49.3754 2.83008L49.2487 0.834097C47.9558 0.916185 46.7813 1.05484 45.7345 1.25698L46.1137 3.2207ZM49.3754 2.83008L49.5119 4.82541C50.7199 4.74276 51.7331 4.70312 52.559 4.70312V2.70312V0.703125C51.6141 0.703125 50.5049 0.748123 49.2389 0.834743L49.3754 2.83008ZM52.559 2.70312V4.70312C53.194 4.70312 53.6559 4.7064 53.9537 4.71247L53.9945 2.71289L54.0353 0.713306C53.6952 0.706366 53.2 0.703125 52.559 0.703125V2.70312ZM53.9945 2.71289L53.0023 4.44938L53.6175 4.80094L54.6098 3.06445L55.602 1.32797L54.9868 0.976404L53.9945 2.71289ZM54.6098 3.06445L52.7307 3.74925C53.7811 6.63174 54.8689 10.5942 55.9866 15.6721L57.9398 15.2422L59.8931 14.8123C58.7581 9.65577 57.6259 5.49977 56.4889 2.37966L54.6098 3.06445ZM57.9398 15.2422L55.9996 15.7273C55.9986 15.7236 56.0025 15.7391 56.0129 15.7868C56.0224 15.83 56.0347 15.8881 56.0502 15.9626L58.0082 15.5547L59.9662 15.1468C59.9349 14.9967 59.9043 14.8539 59.8801 14.7571L57.9398 15.2422ZM58.0082 15.5547L56.0679 16.0398C56.0912 16.1331 56.1058 16.2108 56.1144 16.2741L58.0961 16.0039L60.0778 15.7337C60.0473 15.5105 60.0033 15.2888 59.9485 15.0696L58.0082 15.5547ZM58.0961 16.0039L56.1162 16.2867C56.1239 16.3404 56.1254 16.3756 56.1254 16.3945H58.1254H60.1254C60.1254 16.166 60.1074 15.9408 60.076 15.7211L58.0961 16.0039ZM58.1254 16.3945H56.1254C56.1254 16.4262 56.1208 16.3936 56.1491 16.3294C56.1622 16.2996 56.1786 16.2722 56.1958 16.2492C56.2128 16.2266 56.226 16.2144 56.2296 16.2113L57.5395 17.7227L58.8493 19.234C59.7064 18.4913 60.1254 17.4832 60.1254 16.3945H58.1254ZM57.5395 17.7227L56.8081 15.8612C56.5554 15.9604 56.1569 16.0449 55.557 16.0449V18.0449V20.0449C56.5066 20.0449 57.4297 19.9146 58.2708 19.5842L57.5395 17.7227ZM55.557 18.0449V16.0449C55.3363 16.0449 55.1066 16.0214 54.8655 15.9706L54.4535 17.9277L54.0415 19.8848C54.5426 19.9903 55.0485 20.0449 55.557 20.0449V18.0449ZM54.4535 17.9277L54.8655 15.9706C54.7844 15.9536 54.7926 15.9469 54.8534 15.9761C54.9124 16.0044 55.0893 16.0995 55.2633 16.317L53.7016 17.5664L52.1398 18.8158C52.7165 19.5366 53.5457 19.7805 54.0415 19.8848L54.4535 17.9277ZM53.7016 17.5664L55.6994 17.6593L55.8166 15.1398L53.8187 15.0469L51.8209 14.954L51.7037 17.4735L53.7016 17.5664ZM53.8187 15.0469L55.7848 14.6801L55.5407 13.3715L53.5746 13.7383L51.6085 14.1051L51.8527 15.4137L53.8187 15.0469ZM53.5746 13.7383L53.4518 11.7421C53.0808 11.7649 52.6256 11.7773 52.0805 11.7773V13.7773V15.7773C52.6812 15.7773 53.2221 15.7638 53.6975 15.7345L53.5746 13.7383ZM52.0805 13.7773V11.7773C51.5105 11.7773 50.9867 11.7591 50.5077 11.7241L50.3617 13.7188L50.2158 15.7134C50.8045 15.7565 51.4265 15.7773 52.0805 15.7773V13.7773ZM50.3617 13.7188L48.4093 13.2849L48.2922 13.8122L50.2445 14.2461L52.1969 14.68L52.3141 14.1526L50.3617 13.7188ZM50.2445 14.2461L48.2929 13.8087C48.0398 14.938 47.8515 15.648 47.7274 16.0102L49.6195 16.6582L51.5117 17.3062C51.7131 16.7179 51.9414 15.8199 52.1961 14.6835L50.2445 14.2461ZM49.6195 16.6582L47.7196 16.0336C47.6878 16.1302 47.6631 16.1679 47.6625 16.1689C47.6624 16.169 47.6639 16.1668 47.6671 16.1627C47.6703 16.1587 47.6751 16.153 47.6817 16.146C47.6951 16.1317 47.7139 16.1145 47.7381 16.0969L48.9164 17.7129L50.0947 19.3289C50.8329 18.7907 51.2708 18.0393 51.5195 17.2828L49.6195 16.6582ZM48.9164 17.7129L47.7219 16.1088C47.8261 16.0312 47.8926 16.0203 47.8608 16.0281C47.8272 16.0365 47.7278 16.0547 47.5395 16.0547V18.0547V20.0547C48.3415 20.0547 49.307 19.9156 50.1109 19.317L48.9164 17.7129ZM47.5395 18.0547V16.0547C47.3191 16.0547 47.0865 16.026 46.838 15.9619L46.3383 17.8984L45.8385 19.835C46.3973 19.9792 46.9655 20.0547 47.5395 20.0547V18.0547ZM46.3383 17.8984L46.8086 15.9545C46.5418 15.89 46.332 15.8093 46.1672 15.7236L45.2445 17.498L44.3218 19.2725C44.8081 19.5254 45.3275 19.7116 45.868 19.8424L46.3383 17.8984ZM45.2445 17.498L46.1672 15.7236C46.0816 15.6791 46.0341 15.6469 46.0139 15.6318C45.9934 15.6165 46.0122 15.6272 46.0485 15.6708L44.5121 16.9512L42.9757 18.2315C43.3659 18.6998 43.8568 19.0307 44.3218 19.2725L45.2445 17.498ZM44.5121 16.9512H46.5121C46.5121 16.6897 46.5514 16.4611 46.6214 16.2545L44.727 15.6133L42.8325 14.9721C42.616 15.6118 42.5121 16.2752 42.5121 16.9512H44.5121ZM44.727 15.6133L46.6214 16.2545C46.6519 16.1643 46.6696 16.1431 46.6561 16.1638C46.6407 16.1875 46.585 16.2644 46.4713 16.3452L45.3129 14.7148L44.1545 13.0845C43.436 13.595 43.05 14.3295 42.8325 14.9721L44.727 15.6133ZM52.1586 6.12109V4.12109H51.7094V6.12109V8.12109H52.1586V6.12109ZM51.7094 6.12109L49.7304 5.83207L49.0272 10.6465L51.0062 10.9355L52.9853 11.2246L53.6884 6.41012L51.7094 6.12109ZM51.0062 10.9355V12.9355H53.1937V10.9355V8.93555H51.0062V10.9355ZM53.1937 10.9355L55.1491 10.5151L54.1139 5.70068L52.1586 6.12109L50.2033 6.54151L51.2384 11.356L53.1937 10.9355ZM62.0785 12.0488L64.0762 12.1451L64.0763 12.144L62.0785 12.0488ZM62.2836 9.64648L64.2727 9.85522L64.4764 7.91339L62.5401 7.663L62.2836 9.64648ZM61.1508 9.5L59.2476 10.1149L59.6373 11.3209L60.8943 11.4835L61.1508 9.5ZM60.8773 8.36719L58.891 8.60087L58.8933 8.62003L58.8959 8.63915L60.8773 8.36719ZM60.8187 7.07812L59.5017 5.57297L58.8187 6.17059V7.07812H60.8187ZM61.3363 6.75586L62.2499 8.53499L62.2589 8.53039L62.2678 8.5257L61.3363 6.75586ZM62.2152 6.42383L62.7352 8.35506L62.7524 8.35042L62.7696 8.34548L62.2152 6.42383ZM64.9105 6.78516L63.4689 8.17137L63.4757 8.17851L63.4827 8.18557L64.9105 6.78516ZM65.2426 9.8418L67.2123 10.1887L67.2137 10.1803L65.2426 9.8418ZM65.0375 11.5703L63.875 13.1978L63.9574 13.2566L64.0452 13.3068L65.0375 11.5703ZM65.3012 11.541L67.1395 12.3289L67.202 12.1829L67.2407 12.029L65.3012 11.541ZM71.5609 7.23438L69.9334 8.39686L69.9391 8.40475L71.5609 7.23438ZM71.9418 12.1172L73.8802 12.6097L73.8811 12.606L71.9418 12.1172ZM71.1898 14.6074L69.2997 13.9537L73.0468 15.3502L71.1898 14.6074ZM71.0531 14.9883L69.1735 14.3048L68.7383 15.5018L69.6389 16.4025L71.0531 14.9883ZM71.0727 15.0078L69.6584 16.422L70.6005 17.3641L71.8329 16.8577L71.0727 15.0078ZM72.4984 14.4219L73.8016 12.9047L72.8719 12.1061L71.7382 12.572L72.4984 14.4219ZM73.3871 16.1602H75.3871V16.0434L75.3735 15.9275L73.3871 16.1602ZM72.9477 16.7168L71.4611 15.3789L71.4536 15.3872L71.4462 15.3955L72.9477 16.7168ZM68.2992 10.7109L70.2928 10.8704L70.3629 9.99419L69.7648 9.35004L68.2992 10.7109ZM67.6742 10.418L67.7793 8.42073L66.7366 8.36585L66.0955 9.19009L67.6742 10.418ZM65.7309 14.1484L63.8855 13.3773L63.7871 13.6128L63.751 13.8656L65.7309 14.1484ZM65.8578 15.7305L63.8882 16.078L63.889 16.0821L65.8578 15.7305ZM66.2191 17.2637L67.9867 18.1994L68.3712 17.4733L68.1341 16.6866L66.2191 17.2637ZM65.4965 17.8203L64.7366 15.9703L65.4965 17.8203ZM62.9867 17.9277L62.4605 19.8573L62.4714 19.8602L62.9867 17.9277ZM62.3812 17.6836L61.1534 19.2623L61.1814 19.2841L61.2103 19.305L62.3812 17.6836ZM62.2055 17.5176H64.2055V17.4068L64.1932 17.2967L62.2055 17.5176ZM62.1566 17.0586L60.1671 17.2627L60.1676 17.268L62.1566 17.0586ZM62.0785 16.0039L60.0818 16.118L60.0819 16.1197L62.0785 16.0039ZM62.0395 14.4512H64.0395C64.0395 13.3978 64.0525 12.6359 64.0762 12.1451L62.0785 12.0488L60.0808 11.9526C60.0524 12.5424 60.0395 13.3821 60.0395 14.4512H62.0395ZM62.0785 12.0488L64.0763 12.144C64.0995 11.6554 64.163 10.9001 64.2727 9.85522L62.2836 9.64648L60.2945 9.43775C60.1828 10.5023 60.1096 11.3485 60.0808 11.9537L62.0785 12.0488ZM62.2836 9.64648L62.5401 7.663L61.4073 7.51651L61.1508 9.5L60.8943 11.4835L62.0271 11.63L62.2836 9.64648ZM61.1508 9.5L63.0539 8.88514C62.9424 8.53993 62.8842 8.2803 62.8588 8.09523L60.8773 8.36719L58.8959 8.63915C58.9617 9.11814 59.0857 9.61371 59.2476 10.1149L61.1508 9.5ZM60.8773 8.36719L62.8636 8.1335C62.8373 7.90997 62.8187 7.56638 62.8187 7.07812H60.8187H58.8187C58.8187 7.64456 58.8392 8.16035 58.891 8.60087L60.8773 8.36719ZM60.8187 7.07812L62.1358 8.58328C62.104 8.6111 62.082 8.6271 62.0758 8.63159C62.0689 8.63656 62.0705 8.635 62.0834 8.62699C62.1106 8.61006 62.1635 8.5794 62.2499 8.53499L61.3363 6.75586L60.4227 4.97673C60.1469 5.11835 59.796 5.3155 59.5017 5.57297L60.8187 7.07812ZM61.3363 6.75586L62.2678 8.5257C62.3563 8.47911 62.5051 8.41701 62.7352 8.35506L62.2152 6.42383L61.6953 4.4926C61.2483 4.61293 60.8111 4.7722 60.4048 4.98602L61.3363 6.75586ZM62.2152 6.42383L62.7696 8.34548C62.9318 8.29869 63.0871 8.27734 63.2406 8.27734V6.27734V4.27734C62.7041 4.27734 62.1758 4.35366 61.6609 4.50218L62.2152 6.42383ZM63.2406 6.27734V8.27734C63.3671 8.27734 63.4651 8.28421 63.5383 8.29342C63.6117 8.30266 63.6523 8.3133 63.667 8.31778C63.6956 8.32646 63.5932 8.30067 63.4689 8.17137L64.9105 6.78516L66.3522 5.39894C65.4616 4.47273 64.2229 4.27734 63.2406 4.27734V6.27734ZM64.9105 6.78516L63.4827 8.18557C63.4477 8.14997 63.4221 8.1146 63.4047 8.08513C63.3878 8.0564 63.3825 8.0395 63.3831 8.0414C63.3857 8.04931 63.4086 8.12744 63.4086 8.30859H65.4086H67.4086C67.4086 7.33287 67.1693 6.23187 66.3384 5.38474L64.9105 6.78516ZM65.4086 8.30859H63.4086C63.4086 8.51984 63.3746 8.90231 63.2714 9.50332L65.2426 9.8418L67.2137 10.1803C67.3319 9.49222 67.4086 8.85255 67.4086 8.30859H65.4086ZM65.2426 9.8418L63.2729 9.49493C63.1815 10.014 63.112 10.4151 63.065 10.6952C63.0417 10.8342 63.0228 10.9503 63.0092 11.0389C63.0026 11.0822 62.9958 11.1285 62.9902 11.1718C62.9874 11.193 62.9836 11.2233 62.9802 11.2574C62.9787 11.272 62.9691 11.3621 62.9691 11.4727H64.9691H66.9691C66.9691 11.5767 66.9603 11.6564 66.9602 11.6568C66.9591 11.6679 66.9582 11.676 66.9576 11.6804C66.9571 11.6849 66.9567 11.6877 66.9567 11.6884C66.9565 11.6893 66.9569 11.6862 66.9582 11.6777C66.9594 11.6695 66.961 11.6584 66.9632 11.6439C66.9725 11.5836 66.9877 11.4894 67.01 11.3566C67.0542 11.093 67.1214 10.7047 67.2123 10.1887L65.2426 9.8418ZM64.9691 11.4727H62.9691C62.9691 12.5027 63.6768 13.0562 63.875 13.1978L65.0375 11.5703L66.2 9.94285C66.2924 10.0088 66.4645 10.1457 66.6247 10.3746C66.7959 10.6192 66.9691 10.9954 66.9691 11.4727H64.9691ZM65.0375 11.5703L64.0452 13.3068C64.3905 13.5041 64.781 13.6094 65.184 13.6094V11.6094V9.60938C65.4828 9.60938 65.7756 9.6886 66.0298 9.83383L65.0375 11.5703ZM65.184 11.6094V13.6094C65.4651 13.6094 65.8619 13.555 66.265 13.3198C66.6909 13.0714 66.9779 12.7057 67.1395 12.3289L65.3012 11.541L63.4629 10.7532C63.6049 10.4219 63.8626 10.0904 64.2495 9.86473C64.6135 9.65238 64.9615 9.60938 65.184 9.60938V11.6094ZM65.3012 11.541L67.2407 12.029C67.4901 11.0377 67.7298 10.2481 67.9558 9.64369L66.0824 8.94336L64.209 8.24303C63.9142 9.03184 63.6331 9.97404 63.3616 11.0531L65.3012 11.541ZM66.0824 8.94336L67.9558 9.64369C68.1174 9.2115 68.3592 8.8293 68.6954 8.48475L67.2641 7.08789L65.8327 5.69103C65.1143 6.42721 64.5683 7.28199 64.209 8.24303L66.0824 8.94336ZM67.2641 7.08789L68.6954 8.48475C68.8023 8.37522 68.9473 8.27734 69.3148 8.27734V6.27734V4.27734C68.0027 4.27734 66.7805 4.71984 65.8327 5.69103L67.2641 7.08789ZM69.3148 6.27734V8.27734C69.6386 8.27734 69.8061 8.32775 69.8736 8.35654C69.9234 8.37774 69.9275 8.38855 69.9335 8.39685L71.5609 7.23438L73.1884 6.0719C72.2399 4.744 70.7699 4.27734 69.3148 4.27734V6.27734ZM71.5609 7.23438L69.9391 8.40475C70.0958 8.62184 70.2445 8.98251 70.2445 9.62695H72.2445H74.2445C74.2445 8.34431 73.9375 7.10993 73.1827 6.064L71.5609 7.23438ZM72.2445 9.62695H70.2445C70.2445 10.3282 70.1624 10.9938 70.0024 11.6284L71.9418 12.1172L73.8811 12.606C74.1249 11.639 74.2445 10.6444 74.2445 9.62695H72.2445ZM71.9418 12.1172L70.0034 11.6246C69.8169 12.3586 69.5829 13.1348 69.2997 13.9537L71.1898 14.6074L73.08 15.2612C73.3957 14.3483 73.6631 13.4643 73.8802 12.6097L71.9418 12.1172ZM71.1898 14.6074L73.0468 15.3502C73.0453 15.3539 73.0424 15.3611 73.0385 15.3705C73.0359 15.3769 73.0269 15.3986 73.0143 15.4264C73.0086 15.439 72.9949 15.469 72.9759 15.5066C72.9664 15.5254 72.9493 15.5583 72.9263 15.5985C72.9102 15.6266 72.8582 15.7166 72.7772 15.8219C72.7391 15.8714 72.6519 15.9809 72.5192 16.0986C72.4423 16.1669 72.0694 16.5013 71.4622 16.5841C71.1706 16.6023 70.5599 16.4999 70.2574 16.3706C70.001 16.2092 69.6152 15.8327 69.4805 15.6373C69.2394 15.2385 69.2074 14.8662 69.1995 14.7757C69.1782 14.5303 69.2096 14.3368 69.2134 14.311C69.2231 14.2452 69.234 14.1938 69.2396 14.1688C69.2512 14.1167 69.2624 14.0765 69.2664 14.0621C69.2718 14.043 69.2764 14.0277 69.2791 14.0188C69.2845 14.0011 69.289 13.9875 69.2908 13.982C69.2948 13.9699 69.2977 13.9616 69.2979 13.9609C69.2985 13.9592 69.2948 13.9697 69.283 14.0025C69.2618 14.0618 69.2255 14.1618 69.1735 14.3048L71.0531 14.9883L72.9327 15.6718C72.9849 15.5283 73.0235 15.4216 73.0478 15.354C73.0588 15.3232 73.0706 15.2902 73.0794 15.2649C73.0816 15.2583 73.0861 15.2453 73.0912 15.2299C73.0936 15.2226 73.0984 15.2077 73.1042 15.1889C73.1044 15.1883 73.1256 15.1211 73.1444 15.0366C73.1499 15.0114 73.1609 14.96 73.1706 14.8941C73.1745 14.8682 73.2058 14.6746 73.1845 14.4292C73.1766 14.3387 73.1446 13.9664 72.9035 13.5676C72.7688 13.3721 72.383 12.9957 72.1266 12.8343C71.8241 12.705 71.2134 12.6026 70.9218 12.6208C70.3146 12.7036 69.9417 13.038 69.8648 13.1063C69.7321 13.224 69.6448 13.3335 69.6067 13.3831C69.5257 13.4884 69.4737 13.5785 69.4575 13.6066C69.4344 13.6469 69.4173 13.6799 69.4077 13.6988C69.3886 13.7366 69.3747 13.767 69.3689 13.78C69.3484 13.8254 69.3331 13.8641 69.3329 13.8646L71.1898 14.6074ZM71.0531 14.9883L69.6389 16.4025L69.6584 16.422L71.0727 15.0078L72.4869 13.5936L72.4673 13.5741L71.0531 14.9883ZM71.0727 15.0078L71.8329 16.8577L73.2587 16.2718L72.4984 14.4219L71.7382 12.572L70.3124 13.1579L71.0727 15.0078ZM72.4984 14.4219L71.1953 15.939C71.2876 16.0183 71.3689 16.1217 71.4007 16.3928L73.3871 16.1602L75.3735 15.9275C75.236 14.7533 74.7249 13.6978 73.8016 12.9047L72.4984 14.4219ZM73.3871 16.1602H71.3871C71.3871 15.9114 71.4343 15.7175 71.4647 15.6127C71.4977 15.499 71.5347 15.4107 71.5595 15.3562C71.6078 15.2501 71.6537 15.1762 71.6704 15.1499C71.7061 15.0936 71.7273 15.0691 71.7075 15.0942C71.6745 15.136 71.5986 15.2261 71.4611 15.3789L72.9477 16.7168L74.4342 18.0547C74.5897 17.882 74.7336 17.7165 74.847 17.5728C74.9005 17.5051 74.9766 17.4053 75.0489 17.2913C75.0839 17.236 75.1436 17.1377 75.201 17.0114C75.2331 16.9408 75.3871 16.6099 75.3871 16.1602H73.3871ZM72.9477 16.7168L71.4462 15.3955C71.3317 15.5257 71.1301 15.7014 70.79 15.9017L71.8051 17.625L72.8201 19.3483C73.4306 18.9887 73.9907 18.5589 74.4491 18.0381L72.9477 16.7168ZM71.8051 17.625L70.79 15.9017C70.6584 15.9793 70.4703 16.0449 70.1645 16.0449V18.0449V20.0449C71.0956 20.0449 72.0012 19.8306 72.8201 19.3483L71.8051 17.625ZM70.1645 18.0449V16.0449C70.0334 16.0449 69.9678 16.0274 69.9473 16.0206C69.9315 16.0154 69.9373 16.0155 69.9461 16.023L68.6508 17.5469L67.3555 19.0708C68.1786 19.7704 69.1736 20.0449 70.1645 20.0449V18.0449ZM68.6508 17.5469L69.9461 16.023C70.0018 16.0704 70.0426 16.1198 70.0697 16.1614C70.0958 16.2015 70.1036 16.2254 70.1021 16.2211C70.1003 16.2159 70.0905 16.1853 70.0814 16.1215C70.0722 16.0576 70.0648 15.9678 70.0648 15.8477H68.0648H66.0648C66.0648 16.9062 66.3166 18.1877 67.3555 19.0708L68.6508 17.5469ZM68.0648 15.8477H70.0648C70.0648 15.2565 70.0892 14.4402 70.1406 13.3865L68.143 13.2891L66.1453 13.1916C66.0926 14.2733 66.0648 15.1628 66.0648 15.8477H68.0648ZM68.143 13.2891L70.1406 13.3865C70.1922 12.3283 70.2431 11.492 70.2928 10.8704L68.2992 10.7109L66.3056 10.5514C66.2511 11.2319 66.1979 12.1144 66.1453 13.1916L68.143 13.2891ZM68.2992 10.7109L69.7648 9.35004C69.2436 8.78871 68.5481 8.46119 67.7793 8.42073L67.6742 10.418L67.5691 12.4152C67.4551 12.4092 67.314 12.3807 67.1671 12.3119C67.0205 12.2431 66.9095 12.1535 66.8336 12.0718L68.2992 10.7109ZM67.6742 10.418L66.0955 9.19009C65.7319 9.65759 65.3181 10.4106 64.8822 11.2761L66.6684 12.1758L68.4546 13.0755C68.904 12.1832 69.1608 11.7643 69.2529 11.6459L67.6742 10.418ZM66.6684 12.1758L64.8822 11.2761C64.4358 12.1623 64.0965 12.8723 63.8855 13.3773L65.7309 14.1484L67.5762 14.9196C67.7298 14.5522 68.0155 13.9471 68.4546 13.0755L66.6684 12.1758ZM65.7309 14.1484L63.751 13.8656C63.7257 14.0423 63.7113 14.225 63.7113 14.4121H65.7113H67.7113C67.7113 14.4299 67.71 14.4368 67.7108 14.4313L65.7309 14.1484ZM65.7113 14.4121H63.7113C63.7113 14.9083 63.7826 15.4796 63.8882 16.078L65.8578 15.7305L67.8274 15.3829C67.7377 14.8746 67.7113 14.567 67.7113 14.4121H65.7113ZM65.8578 15.7305L63.889 16.0821C63.9986 16.6963 64.1362 17.2833 64.3042 17.8408L66.2191 17.2637L68.1341 16.6866C68.0156 16.2935 67.9123 15.8584 67.8267 15.3789L65.8578 15.7305ZM66.2191 17.2637L64.4516 16.3279C64.5523 16.1376 64.6714 16.0296 64.7301 15.9844C64.7852 15.942 64.8001 15.9442 64.7366 15.9703L65.4965 17.8203L66.2563 19.6704C66.8191 19.4392 67.556 19.013 67.9867 18.1994L66.2191 17.2637ZM65.4965 17.8203L64.7366 15.9703C64.6822 15.9926 64.5089 16.0449 64.1488 16.0449V18.0449V20.0449C64.8565 20.0449 65.5816 19.9475 66.2563 19.6704L65.4965 17.8203ZM64.1488 18.0449V16.0449C63.7518 16.0449 63.5583 16.0103 63.502 15.9953L62.9867 17.9277L62.4714 19.8602C63.0011 20.0015 63.5823 20.0449 64.1488 20.0449V18.0449ZM62.9867 17.9277L63.513 15.9982C63.4684 15.9861 63.4341 15.9757 63.4088 15.9674C63.3832 15.959 63.3705 15.9541 63.3684 15.9532C63.3658 15.9521 63.3807 15.958 63.4083 15.9723C63.4226 15.9798 63.442 15.9904 63.4655 16.0046C63.489 16.0188 63.5185 16.0378 63.5522 16.0622L62.3812 17.6836L61.2103 19.305C61.6359 19.6123 62.1341 19.7682 62.4605 19.8573L62.9867 17.9277ZM62.3812 17.6836L63.6091 16.1049C63.5666 16.0718 63.582 16.0813 63.6227 16.1197C63.6382 16.1344 63.7094 16.2014 63.7915 16.3063C63.8321 16.3582 63.9105 16.4636 63.9868 16.6119C64.0481 16.731 64.2055 17.0606 64.2055 17.5176H62.2055H60.2055C60.2055 17.9794 60.3647 18.315 60.4296 18.4413C60.5096 18.5967 60.5935 18.7103 60.6414 18.7716C60.7382 18.8952 60.8313 18.9854 60.8762 19.0278C60.9754 19.1215 61.0787 19.2042 61.1534 19.2623L62.3812 17.6836ZM62.2055 17.5176L64.1932 17.2967C64.1875 17.2452 64.1719 17.099 64.1456 16.8492L62.1566 17.0586L60.1676 17.268C60.1934 17.513 60.2104 17.6728 60.2177 17.7384L62.2055 17.5176ZM62.1566 17.0586L64.1462 16.8545C64.1246 16.644 64.1006 16.3264 64.0752 15.8882L62.0785 16.0039L60.0819 16.1197C60.1085 16.5798 60.1366 16.9654 60.1671 17.2627L62.1566 17.0586ZM62.0785 16.0039L64.0753 15.8898C64.0519 15.4806 64.0395 15.0021 64.0395 14.4512H62.0395H60.0395C60.0395 15.0591 60.0531 15.6158 60.0818 16.118L62.0785 16.0039ZM76.725 11.502H74.725L74.725 11.5086L76.725 11.502ZM76.9008 5.27148L78.8902 5.47728L79.0816 3.62639L77.2493 3.30209L76.9008 5.27148ZM75.7973 5.07617L73.862 5.58102L74.1858 6.82204L75.4487 7.04556L75.7973 5.07617ZM75.5629 3.14258L73.9931 1.90329L73.5629 2.44825V3.14258H75.5629ZM77.0375 2.20508L76.3241 0.336605L76.3126 0.341068L77.0375 2.20508ZM80.3773 6.29688L82.3711 6.45511L82.3712 6.45387L80.3773 6.29688ZM80.0941 8.94336L82.077 9.20498L82.0772 9.20321L80.0941 8.94336ZM79.6645 11.4531L77.7117 11.0211L77.6645 11.2345V11.4531H79.6645ZM79.9965 11.541L81.8348 12.3289L81.8973 12.1829L81.9361 12.029L79.9965 11.541ZM86.2562 7.23438L84.6288 8.39686L84.6344 8.40475L86.2562 7.23438ZM86.6371 12.1172L88.5755 12.6097L88.5765 12.606L86.6371 12.1172ZM85.8852 14.6074L83.995 13.9537L87.7421 15.3502L85.8852 14.6074ZM85.7484 14.9883L83.8689 14.3048L83.4336 15.5018L84.3342 16.4025L85.7484 14.9883ZM85.768 15.0078L84.3538 16.422L85.3028 17.3711L86.5407 16.8525L85.768 15.0078ZM87.2133 14.4023L88.5165 12.8852L87.5796 12.0805L86.4405 12.5577L87.2133 14.4023ZM88.102 16.1406H90.102V16.0239L90.0884 15.908L88.102 16.1406ZM87.6625 16.707L89.1491 18.045L89.1557 18.0376L89.1622 18.0303L87.6625 16.707ZM86.5004 17.625L87.5155 19.3483L87.5225 19.3441L86.5004 17.625ZM82.9945 10.7109L84.9882 10.8704L85.0583 9.99419L84.4601 9.35004L82.9945 10.7109ZM82.3695 10.418L82.4746 8.42073L81.4319 8.36585L80.7908 9.19009L82.3695 10.418ZM80.4262 14.1484L78.5808 13.3773L78.4824 13.6128L78.4463 13.8656L80.4262 14.1484ZM80.5531 15.7305L78.5835 16.078L78.5843 16.0821L80.5531 15.7305ZM80.9145 17.2637L82.682 18.1994L83.0665 17.4733L82.8294 16.6866L80.9145 17.2637ZM80.1918 17.8203L79.432 15.9703L80.1918 17.8203ZM77.682 17.9277L77.1558 19.8573L77.1667 19.8602L77.682 17.9277ZM77.0766 17.6836L75.8487 19.2623L75.8767 19.2841L75.9056 19.305L77.0766 17.6836ZM76.9008 17.5176H78.9008V17.4068L78.8885 17.2967L76.9008 17.5176ZM76.852 17.0586L74.8624 17.2627L74.8629 17.268L76.852 17.0586ZM76.7738 16.0039L74.7771 16.118L74.7772 16.1197L76.7738 16.0039ZM76.7348 14.4512H78.7348L78.7348 14.4445L76.7348 14.4512ZM76.725 11.502H78.725C78.725 8.47346 78.785 6.49377 78.8902 5.47728L76.9008 5.27148L74.9114 5.06569C74.7822 6.31483 74.725 8.48878 74.725 11.502H76.725ZM76.9008 5.27148L77.2493 3.30209L76.1458 3.10678L75.7973 5.07617L75.4487 7.04556L76.5522 7.24088L76.9008 5.27148ZM75.7973 5.07617L77.7325 4.57133C77.6238 4.15484 77.5629 3.68157 77.5629 3.14258H75.5629H73.5629C73.5629 3.98379 73.6582 4.79959 73.862 5.58102L75.7973 5.07617ZM75.5629 3.14258L77.1327 4.38187C77.0956 4.42879 77.0676 4.45721 77.0579 4.46677C77.0474 4.47718 77.0463 4.47733 77.0586 4.46701C77.0849 4.44492 77.1409 4.40129 77.2377 4.3352L76.1098 2.68359L74.9818 1.03199C74.6849 1.23479 74.2891 1.52841 73.9931 1.90329L75.5629 3.14258ZM76.1098 2.68359L77.2377 4.3352C77.36 4.25168 77.5299 4.15951 77.7624 4.06909L77.0375 2.20508L76.3126 0.341068C75.842 0.524082 75.3934 0.750921 74.9818 1.03199L76.1098 2.68359ZM77.0375 2.20508L77.7509 4.07351C77.9018 4.01591 78.0153 4 78.102 4V2V0C77.4854 0 76.8894 0.120813 76.3241 0.336641L77.0375 2.20508ZM78.102 2V4C78.338 4 78.4579 4.03098 78.4983 4.04488C78.5278 4.05503 78.4903 4.04652 78.4408 3.99454L79.8891 2.61523L81.3373 1.23592C80.4352 0.288649 79.2193 0 78.102 0V2ZM79.8891 2.61523L78.4408 3.99454C78.3921 3.94339 78.3976 3.9201 78.4187 3.98777C78.4423 4.06374 78.475 4.22363 78.475 4.5H80.475H82.475C82.475 3.38948 82.2232 2.16604 81.3373 1.23592L79.8891 2.61523ZM80.475 4.5H78.475C78.475 4.7863 78.4482 5.31775 78.3835 6.13988L80.3773 6.29688L82.3712 6.45387C82.4366 5.62236 82.475 4.95589 82.475 4.5H80.475ZM80.3773 6.29688L78.3836 6.13864C78.3216 6.92023 78.231 7.76818 78.1111 8.68351L80.0941 8.94336L82.0772 9.20321C82.2046 8.23052 82.3029 7.31414 82.3711 6.45511L80.3773 6.29688ZM80.0941 8.94336L78.1113 8.68174C77.9934 9.57572 77.8593 10.3538 77.7117 11.0211L79.6645 11.4531L81.6172 11.8852C81.7951 11.0811 81.9475 10.186 82.077 9.20498L80.0941 8.94336ZM79.6645 11.4531H77.6645C77.6645 12.3876 78.2419 12.9534 78.5703 13.188L79.7328 11.5605L80.8953 9.93308C81.1326 10.1026 81.6645 10.5967 81.6645 11.4531H79.6645ZM79.7328 11.5605L78.5703 13.188C78.9281 13.4436 79.3784 13.6094 79.8793 13.6094V11.6094V9.60938C80.276 9.60938 80.6286 9.74261 80.8953 9.93308L79.7328 11.5605ZM79.8793 11.6094V13.6094C80.1604 13.6094 80.5572 13.555 80.9603 13.3198C81.3862 13.0714 81.6732 12.7057 81.8348 12.3289L79.9965 11.541L78.1582 10.7532C78.3002 10.4219 78.5579 10.0904 78.9448 9.86473C79.3088 9.65238 79.6568 9.60938 79.8793 9.60938V11.6094ZM79.9965 11.541L81.9361 12.029C82.1854 11.0377 82.4252 10.2481 82.6511 9.64369L80.7777 8.94336L78.9044 8.24303C78.6095 9.03184 78.3284 9.97404 78.0569 11.0531L79.9965 11.541ZM80.7777 8.94336L82.6511 9.64369C82.8127 9.2115 83.0545 8.8293 83.3907 8.48475L81.9594 7.08789L80.528 5.69103C79.8096 6.42721 79.2636 7.28199 78.9044 8.24303L80.7777 8.94336ZM81.9594 7.08789L83.3907 8.48475C83.4976 8.37522 83.6427 8.27734 84.0102 8.27734V6.27734V4.27734C82.698 4.27734 81.4758 4.71984 80.528 5.69103L81.9594 7.08789ZM84.0102 6.27734V8.27734C84.3339 8.27734 84.5014 8.32775 84.569 8.35654C84.6187 8.37774 84.6228 8.38855 84.6288 8.39685L86.2562 7.23438L87.8837 6.0719C86.9352 4.744 85.4652 4.27734 84.0102 4.27734V6.27734ZM86.2562 7.23438L84.6344 8.40475C84.7911 8.62184 84.9398 8.98251 84.9398 9.62695H86.9398H88.9398C88.9398 8.34431 88.6328 7.10993 87.8781 6.064L86.2562 7.23438ZM86.9398 9.62695H84.9398C84.9398 10.3282 84.8577 10.9938 84.6978 11.6284L86.6371 12.1172L88.5765 12.606C88.8202 11.639 88.9398 10.6444 88.9398 9.62695H86.9398ZM86.6371 12.1172L84.6987 11.6246C84.5122 12.3586 84.2783 13.1348 83.995 13.9537L85.8852 14.6074L87.7753 15.2612C88.091 14.3483 88.3584 13.4643 88.5755 12.6097L86.6371 12.1172ZM85.8852 14.6074L87.7421 15.3502C87.7406 15.3539 87.7377 15.3611 87.7338 15.3705C87.7312 15.3769 87.7222 15.3986 87.7096 15.4264C87.7039 15.439 87.6903 15.469 87.6712 15.5066C87.6617 15.5254 87.6447 15.5583 87.6216 15.5985C87.6055 15.6266 87.5535 15.7166 87.4725 15.8219C87.4344 15.8714 87.3472 15.9809 87.2145 16.0986C87.1376 16.1669 86.7647 16.5013 86.1575 16.5841C85.8659 16.6023 85.2552 16.4999 84.9527 16.3706C84.6964 16.2092 84.3105 15.8327 84.1759 15.6373C83.9348 15.2385 83.9027 14.8662 83.8948 14.7757C83.8735 14.5303 83.9049 14.3368 83.9087 14.311C83.9184 14.2452 83.9294 14.1938 83.9349 14.1688C83.9465 14.1167 83.9577 14.0765 83.9617 14.0621C83.9671 14.043 83.9717 14.0277 83.9744 14.0188C83.9799 14.0011 83.9843 13.9875 83.9861 13.982C83.9901 13.9699 83.993 13.9616 83.9932 13.9609C83.9938 13.9592 83.9901 13.9697 83.9783 14.0025C83.9571 14.0618 83.9209 14.1618 83.8689 14.3048L85.7484 14.9883L87.628 15.6718C87.6802 15.5283 87.7188 15.4216 87.7431 15.354C87.7542 15.3232 87.7659 15.2902 87.7747 15.2649C87.7769 15.2583 87.7814 15.2453 87.7865 15.2299C87.7889 15.2226 87.7937 15.2077 87.7995 15.1889C87.7997 15.1883 87.8209 15.1211 87.8397 15.0366C87.8452 15.0114 87.8562 14.96 87.866 14.8941C87.8698 14.8682 87.9011 14.6746 87.8798 14.4292C87.8719 14.3387 87.8399 13.9664 87.5988 13.5676C87.4641 13.3721 87.0783 12.9957 86.8219 12.8343C86.5195 12.705 85.9087 12.6026 85.6171 12.6208C85.0099 12.7036 84.637 13.038 84.5601 13.1063C84.4274 13.224 84.3401 13.3335 84.302 13.3831C84.221 13.4884 84.169 13.5785 84.1528 13.6066C84.1297 13.6469 84.1126 13.6799 84.1031 13.6988C84.0839 13.7366 84.0701 13.767 84.0642 13.78C84.0437 13.8254 84.0284 13.8641 84.0282 13.8646L85.8852 14.6074ZM85.7484 14.9883L84.3342 16.4025L84.3538 16.422L85.768 15.0078L87.1822 13.5936L87.1627 13.5741L85.7484 14.9883ZM85.768 15.0078L86.5407 16.8525L87.986 16.247L87.2133 14.4023L86.4405 12.5577L84.9952 13.1631L85.768 15.0078ZM87.2133 14.4023L85.9101 15.9195C86.0024 15.9988 86.0838 16.1022 86.1155 16.3733L88.102 16.1406L90.0884 15.908C89.9509 14.7337 89.4398 13.6783 88.5165 12.8852L87.2133 14.4023ZM88.102 16.1406H86.102C86.102 15.8925 86.1489 15.6995 86.1786 15.5965C86.211 15.4843 86.2472 15.3972 86.2712 15.3437C86.3181 15.2395 86.3626 15.1671 86.3785 15.1417C86.4126 15.0872 86.4323 15.0642 86.4119 15.0904C86.3776 15.1346 86.3006 15.2276 86.1628 15.3838L87.6625 16.707L89.1622 18.0303C89.3174 17.8544 89.4601 17.687 89.5723 17.5424C89.6252 17.4742 89.6998 17.3748 89.7705 17.2617C89.8047 17.207 89.8629 17.1097 89.9189 16.9852C89.9494 16.9174 90.102 16.5878 90.102 16.1406H88.102ZM87.6625 16.707L86.1759 15.3691C86.0493 15.5098 85.8328 15.6951 85.4782 15.9059L86.5004 17.625L87.5225 19.3441C88.1316 18.982 88.6898 18.5553 89.1491 18.045L87.6625 16.707ZM86.5004 17.625L85.4853 15.9017C85.3537 15.9793 85.1656 16.0449 84.8598 16.0449V18.0449V20.0449C85.7909 20.0449 86.6965 19.8306 87.5155 19.3483L86.5004 17.625ZM84.8598 18.0449V16.0449C84.7288 16.0449 84.6631 16.0274 84.6426 16.0206C84.6269 16.0154 84.6326 16.0155 84.6414 16.023L83.3461 17.5469L82.0508 19.0708C82.8739 19.7704 83.8689 20.0449 84.8598 20.0449V18.0449ZM83.3461 17.5469L84.6414 16.023C84.6971 16.0704 84.7379 16.1198 84.765 16.1614C84.7911 16.2015 84.7989 16.2254 84.7974 16.2211C84.7956 16.2159 84.7858 16.1853 84.7767 16.1215C84.7676 16.0576 84.7602 15.9678 84.7602 15.8477H82.7602H80.7602C80.7602 16.9062 81.0119 18.1877 82.0508 19.0708L83.3461 17.5469ZM82.7602 15.8477H84.7602C84.7602 15.2565 84.7845 14.4402 84.8359 13.3865L82.8383 13.2891L80.8407 13.1916C80.7879 14.2733 80.7602 15.1628 80.7602 15.8477H82.7602ZM82.8383 13.2891L84.8359 13.3865C84.8875 12.3283 84.9384 11.492 84.9882 10.8704L82.9945 10.7109L81.0009 10.5514C80.9465 11.2319 80.8932 12.1144 80.8407 13.1916L82.8383 13.2891ZM82.9945 10.7109L84.4601 9.35004C83.9389 8.78871 83.2434 8.46119 82.4746 8.42073L82.3695 10.418L82.2644 12.4152C82.1504 12.4092 82.0093 12.3807 81.8625 12.3119C81.7158 12.2431 81.6048 12.1535 81.5289 12.0718L82.9945 10.7109ZM82.3695 10.418L80.7908 9.19009C80.4272 9.65759 80.0134 10.4106 79.5775 11.2761L81.3637 12.1758L83.1499 13.0755C83.5993 12.1832 83.8561 11.7643 83.9482 11.6459L82.3695 10.418ZM81.3637 12.1758L79.5775 11.2761C79.1311 12.1623 78.7919 12.8723 78.5808 13.3773L80.4262 14.1484L82.2715 14.9196C82.4251 14.5522 82.7109 13.9471 83.1499 13.0755L81.3637 12.1758ZM80.4262 14.1484L78.4463 13.8656C78.421 14.0423 78.4066 14.225 78.4066 14.4121H80.4066H82.4066C82.4066 14.4299 82.4053 14.4368 82.4061 14.4313L80.4262 14.1484ZM80.4066 14.4121H78.4066C78.4066 14.9083 78.4779 15.4796 78.5836 16.078L80.5531 15.7305L82.5227 15.3829C82.433 14.8746 82.4066 14.567 82.4066 14.4121H80.4066ZM80.5531 15.7305L78.5843 16.0821C78.6939 16.6963 78.8315 17.2833 78.9995 17.8408L80.9145 17.2637L82.8294 16.6866C82.7109 16.2935 82.6076 15.8584 82.522 15.3789L80.5531 15.7305ZM80.9145 17.2637L79.1469 16.3279C79.2477 16.1376 79.3668 16.0296 79.4254 15.9844C79.4805 15.942 79.4954 15.9442 79.432 15.9703L80.1918 17.8203L80.9516 19.6704C81.5144 19.4392 82.2513 19.013 82.682 18.1994L80.9145 17.2637ZM80.1918 17.8203L79.432 15.9703C79.3775 15.9926 79.2042 16.0449 78.8441 16.0449V18.0449V20.0449C79.5518 20.0449 80.2769 19.9475 80.9516 19.6704L80.1918 17.8203ZM78.8441 18.0449V16.0449C78.4471 16.0449 78.2536 16.0103 78.1974 15.9953L77.682 17.9277L77.1667 19.8602C77.6964 20.0015 78.2776 20.0449 78.8441 20.0449V18.0449ZM77.682 17.9277L78.2083 15.9982C78.1637 15.9861 78.1294 15.9757 78.1041 15.9674C78.0785 15.959 78.0658 15.9541 78.0638 15.9532C78.0611 15.9521 78.076 15.958 78.1036 15.9723C78.1179 15.9798 78.1373 15.9904 78.1609 16.0046C78.1843 16.0188 78.2138 16.0378 78.2475 16.0622L77.0766 17.6836L75.9056 19.305C76.3312 19.6123 76.8294 19.7682 77.1558 19.8573L77.682 17.9277ZM77.0766 17.6836L78.3044 16.1049C78.2619 16.0718 78.2774 16.0813 78.318 16.1197C78.3335 16.1344 78.4047 16.2014 78.4868 16.3063C78.5274 16.3582 78.6058 16.4636 78.6821 16.6119C78.7434 16.731 78.9008 17.0606 78.9008 17.5176H76.9008H74.9008C74.9008 17.9794 75.06 18.315 75.125 18.4413C75.2049 18.5967 75.2888 18.7103 75.3368 18.7716C75.4335 18.8952 75.5267 18.9854 75.5715 19.0278C75.6707 19.1215 75.774 19.2042 75.8487 19.2623L77.0766 17.6836ZM76.9008 17.5176L78.8885 17.2967C78.8828 17.2452 78.8672 17.099 78.841 16.8492L76.852 17.0586L74.8629 17.268C74.8887 17.513 74.9057 17.6728 74.913 17.7384L76.9008 17.5176ZM76.852 17.0586L78.8415 16.8545C78.8199 16.644 78.7959 16.3264 78.7705 15.8882L76.7738 16.0039L74.7772 16.1197C74.8039 16.5798 74.8319 16.9654 74.8624 17.2627L76.852 17.0586ZM76.7738 16.0039L78.7706 15.8898C78.7472 15.4806 78.7348 15.0021 78.7348 14.4512H76.7348H74.7348C74.7348 15.0591 74.7484 15.6158 74.7771 16.118L76.7738 16.0039ZM76.7348 14.4512L78.7348 14.4445L78.725 11.4953L76.725 11.502L74.725 11.5086L74.7348 14.4578L76.7348 14.4512Z" fill="#55C3FA" mask="url(#path-1-outside-1_6_2)"/>
</svg>
